<?xml version="1.0" encoding="UTF-8"?>
<svg version="1.1" xmlns="http://www.w3.org/2000/svg" width="289" height="201">
<path d="M0 0 C95.37 0 190.74 0 289 0 C289 66.33 289 132.66 289 201 C193.63 201 98.26 201 0 201 C0 134.67 0 68.34 0 0 Z " fill="#FDFDFD" transform="translate(0,0)"/>
<path d="M0 0 C0.69963867 0.00088623 1.39927734 0.00177246 2.12011719 0.00268555 C7.86494916 0.13385522 12.320712 1.2522128 17.125 4.375 C18.21941406 5.02855469 18.21941406 5.02855469 19.3359375 5.6953125 C21.125 7.375 21.125 7.375 21.5859375 9.72265625 C21.31158593 18.38967171 20.46739626 25.75270748 16.5625 33.5625 C12.47062471 42.88087087 13.07874157 53.37022654 13.125 63.375 C13.12910889 64.44790283 13.12910889 64.44790283 13.13330078 65.54248047 C13.23910057 72.99270946 14.48233341 78.88104486 18.125 85.375 C18.77662109 86.60863281 18.77662109 86.60863281 19.44140625 87.8671875 C28.12610821 103.43812453 43.45742867 112.21529238 60.125 117.375 C70.62448471 120.27631747 81.01101039 120.66244882 91.875 120.75 C93.10178467 120.76401855 94.32856934 120.77803711 95.5925293 120.79248047 C96.75308838 120.78619629 97.91364746 120.77991211 99.109375 120.7734375 C100.66736816 120.76836182 100.66736816 120.76836182 102.25683594 120.76318359 C105.53779945 120.31913082 107.37748347 119.16670712 110.125 117.375 C117.9058289 116.05949944 124.20589477 116.97618673 130.69921875 121.4609375 C139.2593194 128.21528423 144.16743238 132.49138012 146.4375 143.3125 C147.71229009 148.61768705 149.62243166 151.18900369 153.125 155.375 C155.63553545 161.66753563 157.40194459 167.56421455 157.125 174.375 C154.2297827 175.18974962 151.33387172 176.00187322 148.4375 176.8125 C147.62087891 177.04259766 146.80425781 177.27269531 145.96289062 177.50976562 C136.70755152 180.09526521 136.70755152 180.09526521 134.125 180.375 C133.320625 179.4159375 133.320625 179.4159375 132.5 178.4375 C129.04597176 175.43794916 126.02164782 175.97960258 121.5859375 176.0390625 C118.95064122 176.14604513 118.95064122 176.14604513 117.125 178.375 C116.4824765 180.44374034 116.4824765 180.44374034 116.125 182.375 C115.43792969 182.42398438 114.75085938 182.47296875 114.04296875 182.5234375 C112.69138672 182.63558594 112.69138672 182.63558594 111.3125 182.75 C110.41917969 182.81960937 109.52585938 182.88921875 108.60546875 182.9609375 C105.88101501 183.24145036 105.88101501 183.24145036 103.125 185.375 C99.52367198 185.27496311 97.50814337 184.00854139 94.75 181.875 C91.19734034 179.16560901 88.54698874 178.645734 84.125 178.375 C84.00125 179.096875 83.8775 179.81875 83.75 180.5625 C82.72703473 185.16584373 82.1404778 187.6980148 78.125 190.375 C73.34633572 191.15264599 68.88686103 191.29682648 64.125 190.375 C61.14095958 187.80469135 59.51467734 185.04110116 58.125 181.375 C58.125 180.715 58.125 180.055 58.125 179.375 C55.9787974 179.51529419 53.83303782 179.66238164 51.6875 179.8125 C50.49253906 179.89371094 49.29757813 179.97492188 48.06640625 180.05859375 C45.23929756 180.05156114 45.23929756 180.05156114 44.125 181.375 C43.73351239 182.88665654 43.38527543 184.40969632 43.0625 185.9375 C42.88589844 186.76378906 42.70929688 187.59007812 42.52734375 188.44140625 C42.39457031 189.07949219 42.26179687 189.71757812 42.125 190.375 C39.87606046 190.48323773 37.62562425 190.56069645 35.375 190.625 C34.12203125 190.67140625 32.8690625 190.7178125 31.578125 190.765625 C28.125 190.375 28.125 190.375 25.7734375 188.6171875 C24.19581908 186.47132737 23.29652936 184.77394243 22.5 182.25 C21.62082255 179.50903499 21.21815085 178.46815085 19.125 176.375 C16.56633575 175.72219372 16.56633575 175.72219372 13.55078125 175.3046875 C12.41487549 175.13001953 11.27896973 174.95535156 10.10864258 174.77539062 C8.89716553 174.60201172 7.68568848 174.42863281 6.4375 174.25 C5.21119873 174.07404297 3.98489746 173.89808594 2.72143555 173.71679688 C-13.77235208 170.84912484 -13.77235208 170.84912484 -29.3671875 175.171875 C-32.49915555 177.67095831 -34.41058993 180.40782496 -36.13134766 183.99145508 C-37.875 186.375 -37.875 186.375 -40.43115234 187.0378418 C-43.70633719 187.07716513 -46.97466117 187.10491711 -50.25 187.0625 C-51.38695313 187.09021484 -52.52390625 187.11792969 -53.6953125 187.14648438 C-61.76220256 187.12281392 -61.76220256 187.12281392 -64.73217773 185.12695312 C-67.84387893 181.54756814 -68.88721186 177.86494609 -69.875 173.375 C-73.74233058 173.13722561 -77.14888224 173.25666318 -80.875 174.375 C-83.89054601 177.34738972 -85.80304137 180.70966014 -87.875 184.375 C-89.12280273 186.50292969 -89.12280273 186.50292969 -90.875 188.375 C-93.38696289 188.87670898 -93.38696289 188.87670898 -96.34765625 188.87109375 C-97.41177734 188.87173828 -98.47589844 188.87238281 -99.57226562 188.87304688 C-100.68279297 188.85306641 -101.79332031 188.83308594 -102.9375 188.8125 C-104.05189453 188.81958984 -105.16628906 188.82667969 -106.31445312 188.83398438 C-112.45392202 188.78558347 -112.45392202 188.78558347 -114.875 188.375 C-119.02390376 182.15164436 -116.97793292 172.97298302 -116.25 165.8125 C-116.13398437 164.65621094 -116.01796875 163.49992188 -115.8984375 162.30859375 C-114.875 159.375 -114.875 159.375 -111.9765625 157.47265625 C-108.875 156.375 -108.875 156.375 -105.875 156.375 C-106.04 155.42625 -106.205 154.4775 -106.375 153.5 C-107.4976497 145.38190933 -106.99426368 138.4725788 -104.3125 130.75 C-101.36249265 121.68280494 -99.31647477 112.50768479 -97.375 103.1875 C-91.69780793 76.10921189 -91.69780793 76.10921189 -85.875 67.375 C-85.16200513 61.03096612 -87.1922953 56.13163721 -89.375 50.3125 C-92.32666585 41.9401832 -94.67436997 34.32006942 -92.875 25.375 C-90.22714021 21.01884357 -86.5285588 19.29565262 -81.75 17.875 C-78.00627045 17.2239166 -74.35722149 17.08862324 -70.5625 17.0625 C-69.86858154 17.05694092 -69.17466309 17.05138184 -68.4597168 17.0456543 C-64.6973504 17.09910868 -62.12782827 17.52328174 -58.875 19.375 C-48.52292639 22.03424827 -39.80137288 15.57223604 -31.19482422 10.67919922 C-27.8838674 8.8177878 -24.51835729 7.08032444 -21.125 5.375 C-20.07828125 4.83875 -19.0315625 4.3025 -17.953125 3.75 C-12.01663712 1.09816785 -6.48016633 -0.01483412 0 0 Z " fill="#41AA46" transform="translate(126.875,7.625)"/>
<path d="M0 0 C0.69963867 0.00088623 1.39927734 0.00177246 2.12011719 0.00268555 C7.86494916 0.13385522 12.320712 1.2522128 17.125 4.375 C18.21941406 5.02855469 18.21941406 5.02855469 19.3359375 5.6953125 C21.125 7.375 21.125 7.375 21.5859375 9.72265625 C21.31158593 18.38967171 20.46739626 25.75270748 16.5625 33.5625 C12.47062471 42.88087087 13.07874157 53.37022654 13.125 63.375 C13.12910889 64.44790283 13.12910889 64.44790283 13.13330078 65.54248047 C13.23910057 72.99270946 14.48233341 78.88104486 18.125 85.375 C18.77662109 86.60863281 18.77662109 86.60863281 19.44140625 87.8671875 C28.12610821 103.43812453 43.45742867 112.21529238 60.125 117.375 C70.62448471 120.27631747 81.01101039 120.66244882 91.875 120.75 C93.10178467 120.76401855 94.32856934 120.77803711 95.5925293 120.79248047 C96.75308838 120.78619629 97.91364746 120.77991211 99.109375 120.7734375 C100.66736816 120.76836182 100.66736816 120.76836182 102.25683594 120.76318359 C105.53779945 120.31913082 107.37748347 119.16670712 110.125 117.375 C117.9058289 116.05949944 124.20589477 116.97618673 130.69921875 121.4609375 C139.2593194 128.21528423 144.16743238 132.49138012 146.4375 143.3125 C147.71229009 148.61768705 149.62243166 151.18900369 153.125 155.375 C155.63553545 161.66753563 157.40194459 167.56421455 157.125 174.375 C154.2297827 175.18974962 151.33387172 176.00187322 148.4375 176.8125 C147.62087891 177.04259766 146.80425781 177.27269531 145.96289062 177.50976562 C136.70755152 180.09526521 136.70755152 180.09526521 134.125 180.375 C133.320625 179.4159375 133.320625 179.4159375 132.5 178.4375 C129.04597176 175.43794916 126.02164782 175.97960258 121.5859375 176.0390625 C118.95064122 176.14604513 118.95064122 176.14604513 117.125 178.375 C116.4824765 180.44374034 116.4824765 180.44374034 116.125 182.375 C115.43792969 182.42398438 114.75085938 182.47296875 114.04296875 182.5234375 C112.69138672 182.63558594 112.69138672 182.63558594 111.3125 182.75 C110.41917969 182.81960937 109.52585938 182.88921875 108.60546875 182.9609375 C105.88101501 183.24145036 105.88101501 183.24145036 103.125 185.375 C99.52367198 185.27496311 97.50814337 184.00854139 94.75 181.875 C91.19734034 179.16560901 88.54698874 178.645734 84.125 178.375 C84.00125 179.096875 83.8775 179.81875 83.75 180.5625 C82.72703473 185.16584373 82.1404778 187.6980148 78.125 190.375 C73.34633572 191.15264599 68.88686103 191.29682648 64.125 190.375 C61.14095958 187.80469135 59.51467734 185.04110116 58.125 181.375 C58.125 180.715 58.125 180.055 58.125 179.375 C55.9787974 179.51529419 53.83303782 179.66238164 51.6875 179.8125 C50.49253906 179.89371094 49.29757813 179.97492188 48.06640625 180.05859375 C45.23929756 180.05156114 45.23929756 180.05156114 44.125 181.375 C43.73351239 182.88665654 43.38527543 184.40969632 43.0625 185.9375 C42.88589844 186.76378906 42.70929688 187.59007812 42.52734375 188.44140625 C42.39457031 189.07949219 42.26179687 189.71757812 42.125 190.375 C39.87606046 190.48323773 37.62562425 190.56069645 35.375 190.625 C34.12203125 190.67140625 32.8690625 190.7178125 31.578125 190.765625 C28.125 190.375 28.125 190.375 25.7734375 188.6171875 C24.19581908 186.47132737 23.29652936 184.77394243 22.5 182.25 C21.62082255 179.50903499 21.21815085 178.46815085 19.125 176.375 C16.56633575 175.72219372 16.56633575 175.72219372 13.55078125 175.3046875 C12.41487549 175.13001953 11.27896973 174.95535156 10.10864258 174.77539062 C8.89716553 174.60201172 7.68568848 174.42863281 6.4375 174.25 C5.21119873 174.07404297 3.98489746 173.89808594 2.72143555 173.71679688 C-13.77235208 170.84912484 -13.77235208 170.84912484 -29.3671875 175.171875 C-32.49915555 177.67095831 -34.41058993 180.40782496 -36.13134766 183.99145508 C-37.875 186.375 -37.875 186.375 -40.43115234 187.0378418 C-43.70633719 187.07716513 -46.97466117 187.10491711 -50.25 187.0625 C-51.38695313 187.09021484 -52.52390625 187.11792969 -53.6953125 187.14648438 C-61.76220256 187.12281392 -61.76220256 187.12281392 -64.73217773 185.12695312 C-67.84387893 181.54756814 -68.88721186 177.86494609 -69.875 173.375 C-73.74233058 173.13722561 -77.14888224 173.25666318 -80.875 174.375 C-83.89054601 177.34738972 -85.80304137 180.70966014 -87.875 184.375 C-89.12280273 186.50292969 -89.12280273 186.50292969 -90.875 188.375 C-93.38696289 188.87670898 -93.38696289 188.87670898 -96.34765625 188.87109375 C-97.41177734 188.87173828 -98.47589844 188.87238281 -99.57226562 188.87304688 C-100.68279297 188.85306641 -101.79332031 188.83308594 -102.9375 188.8125 C-104.05189453 188.81958984 -105.16628906 188.82667969 -106.31445312 188.83398438 C-112.45392202 188.78558347 -112.45392202 188.78558347 -114.875 188.375 C-119.02390376 182.15164436 -116.97793292 172.97298302 -116.25 165.8125 C-116.13398437 164.65621094 -116.01796875 163.49992188 -115.8984375 162.30859375 C-114.875 159.375 -114.875 159.375 -111.9765625 157.47265625 C-108.875 156.375 -108.875 156.375 -105.875 156.375 C-106.04 155.42625 -106.205 154.4775 -106.375 153.5 C-107.4976497 145.38190933 -106.99426368 138.4725788 -104.3125 130.75 C-101.36249265 121.68280494 -99.31647477 112.50768479 -97.375 103.1875 C-91.69780793 76.10921189 -91.69780793 76.10921189 -85.875 67.375 C-85.16200513 61.03096612 -87.1922953 56.13163721 -89.375 50.3125 C-92.32666585 41.9401832 -94.67436997 34.32006942 -92.875 25.375 C-90.22714021 21.01884357 -86.5285588 19.29565262 -81.75 17.875 C-78.00627045 17.2239166 -74.35722149 17.08862324 -70.5625 17.0625 C-69.86858154 17.05694092 -69.17466309 17.05138184 -68.4597168 17.0456543 C-64.6973504 17.09910868 -62.12782827 17.52328174 -58.875 19.375 C-48.52292639 22.03424827 -39.80137288 15.57223604 -31.19482422 10.67919922 C-27.8838674 8.8177878 -24.51835729 7.08032444 -21.125 5.375 C-20.07828125 4.83875 -19.0315625 4.3025 -17.953125 3.75 C-12.01663712 1.09816785 -6.48016633 -0.01483412 0 0 Z M-43.94799805 61.33959961 C-50.08934224 64.1995423 -55.08366175 65.39892031 -61.87890625 65.41015625 C-63.23725586 65.41885742 -63.23725586 65.41885742 -64.62304688 65.42773438 C-66.50335931 65.43425871 -68.38396253 65.41329882 -70.26367188 65.36523438 C-75.39352321 65.37318932 -75.39352321 65.37318932 -79.56542969 68.00732422 C-82.05197221 71.84493081 -83.68148463 76.00370581 -85 80.375 C-86.04728812 83.74398709 -87.10478035 87.04630106 -88.4375 90.3125 C-91.38226181 98.01049146 -92.74959299 106.34933195 -94.26953125 114.4296875 C-94.75487387 116.79064451 -95.30071167 119.10873569 -95.88671875 121.4453125 C-98.89495326 133.86670922 -99.34601089 145.62690923 -98.875 158.375 C-99.926875 158.7771875 -99.926875 158.7771875 -101 159.1875 C-102.423125 159.7753125 -102.423125 159.7753125 -103.875 160.375 C-105.47214844 160.96667969 -105.47214844 160.96667969 -107.1015625 161.5703125 C-110.17266223 163.1536767 -110.17266223 163.1536767 -110.8984375 166.5546875 C-111.01445313 167.77414063 -111.13046875 168.99359375 -111.25 170.25 C-111.38148437 171.46429688 -111.51296875 172.67859375 -111.6484375 173.9296875 C-111.83465903 176.76153902 -111.92891266 179.53919389 -111.875 182.375 C-106.1662968 183.89732085 -99.75464005 184.35669547 -94.125 182.4375 C-91.19164039 179.74858703 -89.21854758 176.69539279 -87.109375 173.3359375 C-85.875 171.375 -85.875 171.375 -84.875 170.375 C-83.38861008 170.21844973 -81.89550873 170.12433057 -80.40234375 170.05859375 C-79.50322266 170.01669922 -78.60410156 169.97480469 -77.67773438 169.93164062 C-76.73220703 169.89232422 -75.78667969 169.85300781 -74.8125 169.8125 C-73.86310547 169.76931641 -72.91371094 169.72613281 -71.93554688 169.68164062 C-69.58218647 169.57520724 -67.22871646 169.47318992 -64.875 169.375 C-64.72933594 169.95894531 -64.58367187 170.54289062 -64.43359375 171.14453125 C-63.65463028 174.25493785 -62.85478946 177.32036226 -61.875 180.375 C-56.55069064 183.03715468 -47.69174804 182.44121773 -41.875 181.375 C-39.19280204 179.64833506 -37.97816666 178.13743606 -36.26171875 175.48046875 C-34.74277298 173.17423841 -33.28572621 172.01925515 -31 170.5 C-27.84849675 168.72878755 -27.84849675 168.72878755 -26.875 166.375 C-24.83333333 166.52083333 -22.79166667 166.66666667 -20.75 166.8125 C-19.45707031 166.90402344 -18.16414063 166.99554688 -16.83203125 167.08984375 C-14.4330931 167.26271886 -12.03451853 167.44090024 -9.63671875 167.62890625 C1.60341108 168.49353162 12.86201333 168.92232633 24.125 169.375 C24.27066406 169.99826172 24.41632813 170.62152344 24.56640625 171.26367188 C25.14236153 173.44062174 25.94578467 174.96744578 27.125 176.875 C28.59631255 179.3538418 29.66354868 181.49092924 30.125 184.375 C32.435 184.375 34.745 184.375 37.125 184.375 C37.27710938 183.73691406 37.42921875 183.09882813 37.5859375 182.44140625 C38.73072052 179.30548354 39.63269377 177.64227687 42.125 175.375 C45.12639749 174.46347007 48.06408273 174.2228416 51.1875 174.0625 C52.3938208 173.99301147 52.3938208 173.99301147 53.62451172 173.92211914 C57.43636956 173.86465196 59.4553436 173.879944 62.58203125 176.19140625 C64.125 178.375 64.125 178.375 65.75 181.625 C67.79949844 184.59858481 67.79949844 184.59858481 70.6015625 184.7578125 C73.13517726 184.75067556 75.60548299 184.63464488 78.125 184.375 C78.434375 183.26125 78.74375 182.1475 79.0625 181 C80.125 177.375 80.125 177.375 81.125 175.375 C83.99682587 174.89881188 86.79620147 174.53332403 89.6875 174.25 C90.49380859 174.16363281 91.30011719 174.07726562 92.13085938 173.98828125 C94.12804064 173.77556372 96.12642737 173.57422145 98.125 173.375 C98.455 174.365 98.785 175.355 99.125 176.375 C102.81217438 178.83311625 104.76845704 178.68618164 109.125 178.375 C112.73154039 175.97063974 112.97952932 174.42820393 114.125 170.375 C114.93324219 170.31441406 115.74148437 170.25382812 116.57421875 170.19140625 C117.64285156 170.10761719 118.71148437 170.02382812 119.8125 169.9375 C120.86824219 169.85628906 121.92398438 169.77507812 123.01171875 169.69140625 C125.77586297 169.41048319 128.41445741 168.97343148 131.125 168.375 C132.115 169.695 133.105 171.015 134.125 172.375 C135.6409375 172.1584375 135.6409375 172.1584375 137.1875 171.9375 C139.78922552 171.56582493 142.39346926 171.21132655 145 170.875 C147.98477295 170.71073032 147.98477295 170.71073032 149.125 169.375 C149.54624507 165.07830032 149.34642354 162.79494119 147.3125 158.9375 C146.590625 158.091875 145.86875 157.24625 145.125 156.375 C144.135 156.375 143.145 156.375 142.125 156.375 C142.09921875 155.69695312 142.0734375 155.01890625 142.046875 154.3203125 C141.40360015 143.76475698 138.64464639 135.9608701 131.265625 128.2265625 C126.49886935 124.10349284 121.52244461 122.90619736 115.23461914 123.13623047 C112.93587986 123.39640487 110.75112823 123.86778371 108.49609375 124.3828125 C103.29655514 125.44587799 98.35550391 125.64466305 93.0625 125.5625 C92.15781982 125.5531543 91.25313965 125.54380859 90.32104492 125.53417969 C87.58847854 125.49677027 84.85706802 125.4386647 82.125 125.375 C81.31385742 125.36098145 80.50271484 125.34696289 79.66699219 125.33251953 C71.69280799 125.17049694 64.43246778 124.83983404 57.10546875 121.3125 C55.12448898 120.3747581 53.26209733 119.83603673 51.125 119.375 C51.125 120.365 51.125 121.355 51.125 122.375 C50.465 122.375 49.805 122.375 49.125 122.375 C48.8775 121.611875 48.63 120.84875 48.375 120.0625 C46.9957363 117.09708305 45.93242685 115.99139727 43.125 114.375 C42.135 114.375 41.145 114.375 40.125 114.375 C40.125 113.715 40.125 113.055 40.125 112.375 C38.13932292 112.1796875 36.15364583 111.984375 34.16796875 111.7890625 C32.125 111.375 32.125 111.375 29.125 109.375 C28.2126203 107.07293085 27.61119785 104.76115272 26.96875 102.37109375 C26.55109375 101.38302734 26.55109375 101.38302734 26.125 100.375 C23.26187147 99.29963247 23.26187147 99.29963247 20.6875 99.125 C17.19424604 98.10258421 16.11081656 96.35372484 14.125 93.375 C13.795 92.385 13.465 91.395 13.125 90.375 C13.785 90.375 14.445 90.375 15.125 90.375 C14.63 86.91 14.63 86.91 14.125 83.375 C12.475 83.375 10.825 83.375 9.125 83.375 C7.95863961 72.44710031 7.95863961 72.44710031 8.6875 67.75 C9.30766289 62.96588627 9.14033349 58.81491094 7.125 54.375 C2.72476403 50.20915917 -3.2813774 50.05940211 -9.0625 49.8125 C-21.71689497 50.21422682 -32.69638954 56.02820837 -43.94799805 61.33959961 Z " fill="#0C0C0A" transform="translate(126.875,7.625)"/>
<path d="M0 0 C1.09054688 0.02320313 2.18109375 0.04640625 3.3046875 0.0703125 C4.40039062 0.08835937 5.49609375 0.10640625 6.625 0.125 C7.46804687 0.14820313 8.31109375 0.17140625 9.1796875 0.1953125 C9.5096875 1.1853125 9.8396875 2.1753125 10.1796875 3.1953125 C11.1696875 3.1953125 12.1596875 3.1953125 13.1796875 3.1953125 C14.05300382 17.14411477 11.02927382 30.5315804 5.1796875 43.1953125 C2.21793627 42.58253638 0.79909967 41.94158728 -1.8203125 40.1953125 C-2.22094727 38.15161133 -2.22094727 38.15161133 -2.26171875 35.65234375 C-2.30135742 34.28819336 -2.30135742 34.28819336 -2.34179688 32.89648438 C-2.35533203 31.94322266 -2.36886719 30.98996094 -2.3828125 30.0078125 C-2.50082207 23.67463201 -2.9119275 18.29007565 -4.8203125 12.1953125 C-5.0859375 9.39453125 -5.0859375 9.39453125 -5.0703125 6.8828125 C-5.07546875 6.04105469 -5.080625 5.19929688 -5.0859375 4.33203125 C-4.64946589 0.8210023 -3.41365766 0.23640288 0 0 Z " fill="#713C80" transform="translate(127.8203125,12.8046875)"/>
<path d="M0 0 C0.65035371 2.51974253 1.29537493 5.04065935 1.9375 7.5625 C2.11990234 8.26697266 2.30230469 8.97144531 2.49023438 9.69726562 C6.96197411 27.34031149 6.96197411 27.34031149 3.5 35.5625 C3.005 36.366875 2.51 37.17125 2 38 C0.18757948 38.02687279 -1.62495233 38.04633715 -3.4375 38.0625 C-4.44683594 38.07410156 -5.45617187 38.08570313 -6.49609375 38.09765625 C-9 38 -9 38 -10 37 C-10.16197985 35.06524064 -10.2783889 33.12662288 -10.375 31.1875 C-10.76059141 25.42891359 -11.85031963 20.23171845 -13.3671875 14.6796875 C-14.16189097 11.31446172 -14.23421711 8.43518432 -14 5 C-9.32683935 2.15945137 -5.60327899 0 0 0 Z " fill="#404E8D" transform="translate(119,14)"/>
<path d="M0 0 C0.4808225 2.35807632 0.95503206 4.71723356 1.421875 7.078125 C1.79936132 8.98596125 2.18444488 10.89231441 2.578125 12.796875 C4.99762766 25.0326456 4.99762766 25.0326456 4 30 C1.9375 32.3125 1.9375 32.3125 -1 34 C-1.58910156 34.36996094 -2.17820312 34.73992188 -2.78515625 35.12109375 C-5.690894 36.90401989 -7.53991746 38 -11 38 C-12.42676206 33.71971382 -12.35237291 29.36923647 -12.51757812 24.89257812 C-12.70673982 21.04153147 -13.20159583 18.37291063 -15 15 C-15.1953125 12.421875 -15.1953125 12.421875 -15.125 9.75 C-15.09792969 8.41195313 -15.09792969 8.41195313 -15.0703125 7.046875 C-15.04710938 6.37140625 -15.02390625 5.6959375 -15 5 C-13.44424022 4.15415002 -11.8800388 3.32381601 -10.3125 2.5 C-9.44238281 2.0359375 -8.57226562 1.571875 -7.67578125 1.09375 C-4.88211171 -0.04818792 -2.98370887 -0.21504208 0 0 Z " fill="#207348" transform="translate(103,22)"/>
<path d="M0 0 C0.391875 1.093125 0.78375 2.18625 1.1875 3.3125 C2.47530159 6.76698199 3.94240166 10.09642804 5.5 13.4375 C9.07279758 21.26311404 12.01756505 28.23328572 11 37 C9.18884044 38.81115956 6.38721773 38.38199448 3.9375 38.5625 C2.83277344 38.64628906 1.72804688 38.73007813 0.58984375 38.81640625 C-0.26480469 38.87699219 -1.11945312 38.93757813 -2 39 C-2.25394531 38.21496094 -2.50789063 37.42992187 -2.76953125 36.62109375 C-5.00273358 29.72612707 -5.00273358 29.72612707 -7.6875 23 C-10.10491619 17.47447727 -10.89373142 12.00354365 -10 6 C-7.04114827 2.18463856 -4.89477114 0 0 0 Z " fill="#CF2C29" transform="translate(48,31)"/>
<path d="M0 0 C5.69243032 -0.30495162 11.19517257 -0.45180507 16 3 C20.91350606 9.6268612 20.59188926 18.34660091 20.82421875 26.2421875 C20.95655168 29.07117151 21.14183746 31.33481227 22 34 C22.66 34 23.32 34 24 34 C24 34.99 24 35.98 24 37 C19.84055256 38.30492469 16.34963091 39.12019705 12 39 C11.86464844 38.319375 11.72929688 37.63875 11.58984375 36.9375 C9.9960983 29.76087377 7.59598178 23.33636221 4.51342773 16.69726562 C1.98602462 11.21511736 0 6.12846807 0 0 Z " fill="#E17633" transform="translate(52,29)"/>
<path d="M0 0 C2.3405045 7.90472274 3.42537119 15.4173334 3.7890625 23.65234375 C3.97103895 26.54037747 4.34877229 29.18690982 5 32 C1.1389146 33.43668294 -1.896427 34.11185208 -6 34 C-8.45064531 26.28863608 -9.68309756 18.70608435 -10.5703125 10.69921875 C-10.94878905 7.44087973 -11.42922913 4.22936149 -12 1 C-7.9472484 0.01751476 -4.16138263 -0.08159574 0 0 Z " fill="#E3DF38" transform="translate(85,31)"/>
<path d="M0 0 C0.33 2.31 0.66 4.62 1 7 C-0.2065625 7.5259375 -0.2065625 7.5259375 -1.4375 8.0625 C-5.32038342 9.96713713 -8.46530369 12.69795713 -11.75390625 15.4765625 C-14.20944563 17.14205878 -16.08164916 17.62046052 -19 18 C-22.0241615 14.61293912 -22.0241615 14.61293912 -21.92578125 12.1171875 C-20.56084853 8.99569579 -18.40278266 7.79247202 -15.625 5.875 C-14.64789063 5.19179687 -13.67078125 4.50859375 -12.6640625 3.8046875 C-7.93073629 0.59824071 -5.77108414 -0.21777676 0 0 Z " fill="#D8DE3C" transform="translate(141,91)"/>
<path d="M0 0 C1.32 0 2.64 0 4 0 C4 0.66 4 1.32 4 2 C4.99 2 5.98 2 7 2 C6.52412884 8.02770138 3.80277043 12.76678289 1 18 C-4.75 17.25 -4.75 17.25 -7 15 C-6.86705901 9.41647852 -3.95011846 3.95011846 0 0 Z " fill="#D6DD3D" transform="translate(163,120)"/>
<path d="M0 0 C3 1 3 1 4.25 2.8125 C5.15915849 5.46421227 5.22221889 6.47408096 4 9 C2.36935236 10.05771739 0.69719127 11.05273046 -1 12 C-1.680625 12.7425 -2.36125 13.485 -3.0625 14.25 C-5 16 -5 16 -7 15.9375 C-9.25964485 14.87829148 -11.07478713 13.58142486 -13 12 C-12.64819344 9.19767875 -12.2478942 8.2064139 -10.0390625 6.3671875 C-9.24242187 5.87476562 -8.44578125 5.38234375 -7.625 4.875 C-6.83351562 4.37742187 -6.04203125 3.87984375 -5.2265625 3.3671875 C-4.49179688 2.91601562 -3.75703125 2.46484375 -3 2 C-2.01 1.34 -1.02 0.68 0 0 Z " fill="#D8DD3D" transform="translate(150,107)"/>
<path d="M0 0 C2.92879371 0.62759865 5.36095629 1.58622659 8 3 C7.71812064 4.79323253 7.4241719 6.58457126 7.125 8.375 C6.96257812 9.37273437 6.80015625 10.37046875 6.6328125 11.3984375 C6 14 6 14 4 16 C-0.13830989 15.69903201 -2.51847024 15.32101984 -6 13 C-4.31326082 8.50202887 -2.18326108 4.27113698 0 0 Z " fill="#D8DE3C" transform="translate(178,127)"/>
<path d="M0 0 C0.70253906 0.00386719 1.40507813 0.00773437 2.12890625 0.01171875 C2.83144531 0.00785156 3.53398437 0.00398438 4.2578125 0 C9.50229247 0.01010497 9.50229247 0.01010497 10.62890625 1.13671875 C10.75390625 3.63671875 10.75390625 3.63671875 10.62890625 6.13671875 C10.29890625 6.46671875 9.96890625 6.79671875 9.62890625 7.13671875 C6.92782121 7.04580275 4.25960314 6.89931109 1.56640625 6.69921875 C0.42848633 6.6209082 0.42848633 6.6209082 -0.73242188 6.54101562 C-2.61231097 6.4109604 -4.4917506 6.27443837 -6.37109375 6.13671875 C-6.41381475 4.4705997 -6.41173207 2.8028899 -6.37109375 1.13671875 C-4.61549433 -0.61888067 -2.33526933 0.00449956 0 0 Z " fill="#D6DD3C" transform="translate(125.37109375,70.86328125)"/>
<path d="M0 0 C0.33 0 0.66 0 1 0 C4.25968109 15.74487472 4.25968109 15.74487472 5 23 C4.01 23.33 3.02 23.66 2 24 C-0.35194842 15.64194602 -1.43150464 8.6062749 0 0 Z " fill="#0F151A" transform="translate(104,19)"/>
<path d="M0 0 C0.99 0.33 1.98 0.66 3 1 C3 6.61 3 12.22 3 18 C2.67 18 2.34 18 2 18 C1.93941406 17.30132812 1.87882812 16.60265625 1.81640625 15.8828125 C1.73261719 14.97273438 1.64882812 14.06265625 1.5625 13.125 C1.48128906 12.22007813 1.40007812 11.31515625 1.31640625 10.3828125 C1.13010715 7.98889139 1.13010715 7.98889139 0 6 C-0.039992 4.00039988 -0.04346799 1.99952758 0 0 Z " fill="#030503" transform="translate(87,37)"/>
</svg>
