<?xml version="1.0" encoding="UTF-8"?>
<svg version="1.1" xmlns="http://www.w3.org/2000/svg" width="573" height="78">
<path d="M0 0 C189.09 0 378.18 0 573 0 C573 25.74 573 51.48 573 78 C383.91 78 194.82 78 0 78 C0 52.26 0 26.52 0 0 Z " fill="#FCFBFA" transform="translate(0,0)"/>
<path d="M0 0 C3.78661585 3.60271839 5.9962596 6.78222145 6.390625 12.12890625 C6.50956068 19.73087863 6.50956068 19.73087863 5.1875 22.375 C4.5275 22.375 3.8675 22.375 3.1875 22.375 C3.0328125 23.179375 3.0328125 23.179375 2.875 24 C1.04650145 30.31663137 -1.92630801 33.66081418 -6.97265625 37.6640625 C-8.91579483 39.24042049 -8.91579483 39.24042049 -9.68359375 41.3984375 C-11.42784785 44.45239105 -13.58200599 45.13220995 -16.8125 46.375 C-20.3203125 46.80859375 -20.3203125 46.80859375 -23.9375 46.8125 C-25.13632813 46.83183594 -26.33515625 46.85117187 -27.5703125 46.87109375 C-31.36643538 46.29024121 -32.53364015 45.40605075 -34.8125 42.375 C-35.40554341 39.070901 -34.91756853 37.5899129 -33.4375 34.5625 C-32.90125 33.840625 -32.365 33.11875 -31.8125 32.375 C-31.1525 32.375 -30.4925 32.375 -29.8125 32.375 C-29.1525 29.405 -28.4925 26.435 -27.8125 23.375 C-27.1525 23.375 -26.4925 23.375 -25.8125 23.375 C-25.67972656 22.63894531 -25.54695312 21.90289062 -25.41015625 21.14453125 C-25.23355469 20.16871094 -25.05695313 19.19289063 -24.875 18.1875 C-24.70097656 17.22457031 -24.52695313 16.26164062 -24.34765625 15.26953125 C-23.8601265 12.63260028 -23.34578895 10.0030095 -22.8125 7.375 C-23.451875 7.230625 -24.09125 7.08625 -24.75 6.9375 C-26.8125 6.375 -26.8125 6.375 -27.8125 5.375 C-28 2.9375 -28 2.9375 -27.8125 0.375 C-22.19400715 -5.24349285 -6.14211842 -4.38886447 0 0 Z " fill="#E9983B" transform="translate(161.8125,14.625)"/>
<path d="M0 0 C0.66 0.66 1.32 1.32 2 2 C2.94875 1.9175 3.8975 1.835 4.875 1.75 C5.90625 1.8325 6.9375 1.915 8 2 C11.79198369 6.45353481 12.50497453 9.66544946 12.375 15.4375 C12.36210937 16.69433594 12.34921875 17.95117188 12.3359375 19.24609375 C11.98770794 23.13735663 11.19387461 26.29898871 10 30 C9.01 30 8.02 30 7 30 C6.87625 30.556875 6.7525 31.11375 6.625 31.6875 C4.99937444 37.70231457 2.94031781 40.06791031 -2 44 C-2.45632812 44.69351563 -2.91265625 45.38703125 -3.3828125 46.1015625 C-5 48 -5 48 -7.33984375 48.64453125 C-8.19707031 48.69996094 -9.05429688 48.75539062 -9.9375 48.8125 C-10.79214844 48.88082031 -11.64679688 48.94914062 -12.52734375 49.01953125 C-16.92385638 48.98480366 -18.49645464 48.48065694 -21.75 45.375 C-25.54466934 39.7993969 -24.51279551 32.42459519 -24 26 C-23.4765625 23.54296875 -23.4765625 23.54296875 -23 22 C-22.34 22 -21.68 22 -21 22 C-20.9175 20.783125 -20.835 19.56625 -20.75 18.3125 C-19.13459618 10.69702486 -12.52938315 5.09704455 -7 0 C-3.85179059 -1.04940314 -3.00659136 -1.066855 0 0 Z " fill="#ECC237" transform="translate(195,10)"/>
<path d="M0 0 C1.98 0 3.96 0 6 0 C6.66 1.32 7.32 2.64 8 4 C10.31 4 12.62 4 15 4 C17.50237294 9.94313572 18.15048168 16.10405066 16.3125 22.328125 C13.47531166 29.09009053 9.48405515 35.7621404 4.1875 40.875 C1.78269484 42.88503551 1.78269484 42.88503551 1 46 C-3.94678528 49.4246975 -9.16194111 50.0605807 -15 49 C-18.34625024 46.47323961 -19.67977847 44.96066458 -21 41 C-21.6878894 32.30878201 -21.19615267 23.794229 -16.25 16.375 C-15.13625 15.199375 -15.13625 15.199375 -14 14 C-12.85392145 12.64604086 -11.70811052 11.29185517 -10.5625 9.9375 C-7.92335681 6.94156277 -5.31183315 4.2709713 -2 2 C-1.34 2 -0.68 2 0 2 C0 1.34 0 0.68 0 0 Z " fill="#77BA3B" transform="translate(336,8)"/>
<path d="M0 0 C1.13719482 0.00229614 1.13719482 0.00229614 2.29736328 0.00463867 C3.06580566 0.0055249 3.83424805 0.00641113 4.62597656 0.00732422 C11.37311761 0.14791939 16.59452172 1.48239435 21.93798828 5.73510742 C23.62646344 7.87621598 23.63688432 9.17753489 23.60986328 11.87963867 C23.62146484 13.03979492 23.62146484 13.03979492 23.63330078 14.22338867 C23.14051949 16.89020509 22.36250838 17.74145184 20.23486328 19.37963867 C19.24486328 19.70963867 18.25486328 20.03963867 17.23486328 20.37963867 C16.57486328 21.36963867 15.91486328 22.35963867 15.23486328 23.37963867 C13.39501953 24.32885742 13.39501953 24.32885742 11.29736328 25.06713867 C10.60771484 25.31850586 9.91806641 25.56987305 9.20751953 25.82885742 C7.23486328 26.37963867 7.23486328 26.37963867 4.23486328 26.37963867 C5.26941676 33.3590144 7.31134862 39.38444865 10.21142578 45.81323242 C11.23486328 48.37963867 11.23486328 48.37963867 11.23486328 51.37963867 C7.86388945 52.87784926 6.03044209 53.37963867 2.23486328 53.37963867 C-2.70434675 46.05598242 -5.0941467 37.23000708 -4.76513672 28.37963867 C-5.75513672 28.37963867 -6.74513672 28.37963867 -7.76513672 28.37963867 C-7.95849609 29.15049805 -8.15185547 29.92135742 -8.35107422 30.71557617 C-8.61146484 31.7184668 -8.87185547 32.72135742 -9.14013672 33.75463867 C-9.39537109 34.75237305 -9.65060547 35.75010742 -9.91357422 36.77807617 C-10.76513672 39.37963867 -10.76513672 39.37963867 -12.76513672 41.37963867 C-13.47922006 43.3632035 -14.15131414 45.36279305 -14.76513672 47.37963867 C-20.18052133 47.74886944 -20.18052133 47.74886944 -23.14013672 45.87963867 C-23.67638672 45.38463867 -24.21263672 44.88963867 -24.76513672 44.37963867 C-24.26796388 40.00451767 -23.3957518 37.81967378 -20.76513672 34.37963867 C-20.39388672 33.26588867 -20.02263672 32.15213867 -19.64013672 31.00463867 C-18.16386577 26.70419722 -15.69483145 23.21974227 -13.14013672 19.50463867 C-9.6919391 14.43986523 -7.76886204 10.57407266 -7.86279297 4.27026367 C-7.61999824 -0.43024235 -3.76663425 0.07594363 0 0 Z " fill="#539498" transform="translate(411.76513671875,10.620361328125)"/>
<path d="M0 0 C1.80791016 0.00966797 1.80791016 0.00966797 3.65234375 0.01953125 C6.58137709 0.16380208 9.21677436 0.51251764 12.0625 1.1875 C12.0625 1.8475 12.0625 2.5075 12.0625 3.1875 C12.64 3.27 13.2175 3.3525 13.8125 3.4375 C16.87914337 4.45971446 18.18609684 5.54663629 20.0625 8.1875 C20.33955252 12.9897437 18.94125888 15.75239445 16 19.375 C12.54254696 23.04631611 8.86947847 25.59910711 4.0625 27.1875 C3.0725 27.1875 2.0825 27.1875 1.0625 27.1875 C1.84320813 30.14883748 2.63891421 33.10593802 3.4375 36.0625 C3.65921875 36.90425781 3.8809375 37.74601562 4.109375 38.61328125 C4.32851563 39.41894531 4.54765625 40.22460938 4.7734375 41.0546875 C4.97243652 41.79831543 5.17143555 42.54194336 5.37646484 43.30810547 C5.98836032 45.39454055 5.98836032 45.39454055 8.0625 47.1875 C8.0625 48.5075 8.0625 49.8275 8.0625 51.1875 C5.98086944 52.45134713 4.58763785 53.20443993 2.125 53.125 C-2.37600162 51.07909017 -4.91941364 47.75215162 -6.6875 43.25 C-7.55176973 40.70064571 -8.06127621 38.43108984 -8.5 35.75 C-8.644375 34.904375 -8.78875 34.05875 -8.9375 33.1875 C-9.5975 32.8575 -10.2575 32.5275 -10.9375 32.1875 C-11.06125 32.826875 -11.185 33.46625 -11.3125 34.125 C-11.51875 34.805625 -11.725 35.48625 -11.9375 36.1875 C-12.9275 36.6825 -12.9275 36.6825 -13.9375 37.1875 C-14.62790574 38.84447379 -15.2905635 40.5130761 -15.9375 42.1875 C-16.90986487 43.8704392 -17.90314444 45.54193434 -18.9375 47.1875 C-21.2475 46.8575 -23.5575 46.5275 -25.9375 46.1875 C-27.20014601 41.89450357 -26.56700412 39.30918689 -24.9375 35.1875 C-24.2775 35.1875 -23.6175 35.1875 -22.9375 35.1875 C-22.6796875 34.34574219 -22.421875 33.50398438 -22.15625 32.63671875 C-20.84884591 28.93659756 -19.2168139 25.48790193 -17.4375 22 C-17.12941406 21.38447266 -16.82132812 20.76894531 -16.50390625 20.13476562 C-15.10558754 17.36513435 -13.66110098 14.77290147 -11.9375 12.1875 C-11.6448428 9.60793586 -11.56036691 7.0589713 -11.4765625 4.46484375 C-10.9375 2.1875 -10.9375 2.1875 -9.33203125 0.890625 C-6.15041085 -0.04361916 -3.31332635 -0.03889711 0 0 Z " fill="#5AA86A" transform="translate(374.9375,8.8125)"/>
<path d="M0 0 C1.17755859 -0.06864258 1.17755859 -0.06864258 2.37890625 -0.13867188 C7.96002726 -0.24690609 7.96002726 -0.24690609 10.52880859 1.67456055 C13.04491657 4.52380087 13.86343099 6.3237381 14.25 10.125 C13.48873282 16.84952673 10.16105168 19.47043227 5.1875 23.75 C2.875 25.4375 2.875 25.4375 0.875 25.4375 C1.205 27.7475 1.535 30.0575 1.875 32.4375 C2.535 32.4375 3.195 32.4375 3.875 32.4375 C4.41125 33.63375 4.9475 34.83 5.5 36.0625 C7.02634231 39.16459858 8.60848041 41.38256333 11.125 43.75 C12.0325 44.636875 12.94 45.52375 13.875 46.4375 C13.875 47.4275 13.875 48.4175 13.875 49.4375 C11.25810779 50.70856193 9.30210381 51.4375 6.375 51.4375 C2.69551524 49.9657061 1.1444662 47.62702007 -1.125 44.4375 C-1.79166667 42.77083333 -2.45833333 41.10416667 -3.125 39.4375 C-4.61 38.9425 -4.61 38.9425 -6.125 38.4375 C-6.85546875 36.58984375 -6.85546875 36.58984375 -7.3125 34.375 C-7.47105469 33.64152344 -7.62960938 32.90804687 -7.79296875 32.15234375 C-7.90253906 31.58644531 -8.01210938 31.02054688 -8.125 30.4375 C-8.785 30.4375 -9.445 30.4375 -10.125 30.4375 C-11.40634207 37.09301466 -12.46144956 43.69140382 -13.125 50.4375 C-19.1796875 50.6328125 -19.1796875 50.6328125 -21.125 50.4375 C-23.125 48.4375 -23.125 48.4375 -23.13671875 45.65234375 C-23.02972656 44.57082031 -22.92273437 43.48929688 -22.8125 42.375 C-22.71324219 41.29089844 -22.61398438 40.20679688 -22.51171875 39.08984375 C-22.125 36.4375 -22.125 36.4375 -21.125 35.4375 C-20.46573678 32.38228589 -19.88503924 29.32131067 -19.31835938 26.24804688 C-18.72167231 23.11621268 -18.02836209 20.14995982 -17.01171875 17.125 C-16.00511752 14.07415575 -16.09011293 12.45592063 -17.125 9.4375 C-17.785 9.1075 -18.445 8.7775 -19.125 8.4375 C-18.375 3.6875 -18.375 3.6875 -16.125 1.4375 C-10.78597988 0.39290911 -5.42560456 0.13046644 0 0 Z " fill="#E74736" transform="translate(35.125,21.5625)"/>
<path d="M0 0 C0.94875 0.04125 1.8975 0.0825 2.875 0.125 C2.875 0.785 2.875 1.445 2.875 2.125 C4.195 2.785 5.515 3.445 6.875 4.125 C7.205 10.725 7.535 17.325 7.875 24.125 C8.37 22.64 8.37 22.64 8.875 21.125 C9.679375 20.34125 10.48375 19.5575 11.3125 18.75 C13.9285992 16.0700935 14.53251087 14.52070781 15.875 11.125 C17.77534217 8.37949217 19.8069736 5.74580076 21.875 3.125 C24.35 3.62 24.35 3.62 26.875 4.125 C27.88537076 7.27497944 28.3202321 8.90602312 27.875 12.125 C25.98530082 15.0255744 23.79750586 17.47745051 21.49609375 20.0625 C15.30364767 27.08168023 10.11670934 35.59727728 6.62890625 44.2578125 C5.81491354 46.27381518 4.86750574 48.19154726 3.875 50.125 C-3 49.25 -3 49.25 -4.125 48.125 C-4.28186249 46.56551458 -4.37576639 44.99957332 -4.44140625 43.43359375 C-4.48330078 42.48935547 -4.52519531 41.54511719 -4.56835938 40.57226562 C-4.60767578 39.57904297 -4.64699219 38.58582031 -4.6875 37.5625 C-4.73068359 36.56541016 -4.77386719 35.56832031 -4.81835938 34.54101562 C-4.92480298 32.0691585 -5.02681928 29.5971969 -5.125 27.125 C-5.455 28.115 -5.785 29.105 -6.125 30.125 C-6.785 30.125 -7.445 30.125 -8.125 30.125 C-8.41375 31.053125 -8.7025 31.98125 -9 32.9375 C-10.125 36.125 -10.125 36.125 -12.125 39.125 C-12.785 39.125 -13.445 39.125 -14.125 39.125 C-14.24875 40.053125 -14.3725 40.98125 -14.5 41.9375 C-15.125 45.125 -15.125 45.125 -17.125 48.125 C-19.73123142 47.77280657 -21.73289115 47.36026531 -24 46 C-25.43663978 43.60560037 -25.35126189 41.84728978 -24.828125 39.140625 C-23.38837137 35.01333126 -20.6634626 31.63979438 -18.125 28.125 C-16.61760849 25.88522547 -15.13031125 23.63305796 -13.64453125 21.37890625 C-12.61019606 19.8446867 -11.54342994 18.33194991 -10.44921875 16.83984375 C-6.78843278 11.74619645 -5.56281704 8.36389288 -5.125 2.125 C-3.125 0.125 -3.125 0.125 0 0 Z " fill="#716AAA" transform="translate(509.125,16.875)"/>
<path d="M0 0 C1.98 0 3.96 0 6 0 C8.60018816 3.90028225 8.15085514 7.47434569 8 12 C7.34 12 6.68 12 6 12 C5.81050781 13.08087891 5.81050781 13.08087891 5.6171875 14.18359375 C5.00971878 16.95565036 4.13189735 19.41256472 3.125 22.0625 C0.12913097 30.77676138 -0.81309448 39.90039103 -2 49 C-4.1875 49.75 -4.1875 49.75 -7 50 C-10.70840222 47.97480628 -11.80643558 46.63818045 -13.0390625 42.57421875 C-13.23242188 41.29160156 -13.42578125 40.00898437 -13.625 38.6875 C-14.46927465 33.26550241 -15.69171241 28.92902295 -18 24 C-20.36328211 32.60234688 -21.88740222 41.15157531 -23 50 C-24.98 50 -26.96 50 -29 50 C-29 49.01 -29 48.02 -29 47 C-29.99 46.67 -30.98 46.34 -32 46 C-31.59483443 40.0078145 -31.05313 34.6763006 -29 29 C-28.43992552 26.4634308 -27.94594654 23.9198155 -27.46484375 21.3671875 C-27.04361651 19.22211433 -26.5506849 17.11501986 -26 15 C-25.34 15 -24.68 15 -24 15 C-24 10.38 -24 5.76 -24 1 C-21.03 1 -18.06 1 -15 1 C-10.69882152 7.52592597 -8 15.11025502 -8 23 C-7.34 23 -6.68 23 -6 23 C-6.061875 21.96875 -6.12375 20.9375 -6.1875 19.875 C-5.98382863 15.66579171 -4.98112294 13.65745774 -3 10 C-2.29187186 7.67891331 -1.61975848 5.34622853 -1 3 C-0.67 2.01 -0.34 1.02 0 0 Z " fill="#E7753D" transform="translate(122,14)"/>
<path d="M0 0 C5.45487021 -0.36365801 5.45487021 -0.36365801 7.67651367 1.1184082 C9.60127874 3.85483402 9.37197466 5.97044015 9.36328125 9.29296875 C9.36392578 10.5567334 9.36457031 11.82049805 9.36523438 13.12255859 C9.34865552 14.47755166 9.33106064 15.83253263 9.3125 17.1875 C9.30387191 18.55550027 9.29540843 19.9235016 9.28710938 21.29150391 C9.19531267 30.64722319 8.64888395 39.78391651 7 49 C4.525 49.495 4.525 49.495 2 50 C2 49.34 2 48.68 2 48 C0.35 48 -1.3 48 -3 48 C-2.67 43.38 -2.34 38.76 -2 34 C-5.96313368 34.22864233 -8.29876355 34.3745729 -11.3125 37.0625 C-13.40667087 40.70790856 -14.16333818 43.8864127 -15 48 C-19.49672794 49.04575068 -21.81920801 48.86604344 -26 47 C-25.99398167 44.41211799 -25.94659047 41.83620571 -25.875 39.25 C-25.87757812 38.52039062 -25.88015625 37.79078125 -25.8828125 37.0390625 C-25.8046875 34.890625 -25.8046875 34.890625 -25 31 C-22.16796875 28.91796875 -22.16796875 28.91796875 -19 27 C-17.60941468 24.65251291 -16.49575806 22.54222074 -15.4375 20.0625 C-13.20383447 15.05416122 -11.06082255 11.7013399 -7 8 C-6.2265625 7.1028125 -6.2265625 7.1028125 -5.4375 6.1875 C-4 5 -4 5 0 5 C0 3.35 0 1.7 0 0 Z " fill="#E76139" transform="translate(76,18)"/>
<path d="M0 0 C1.98 0 3.96 0 6 0 C8.09440189 3.40340307 8.25797575 6.04437178 8 10 C7.67 10.66 7.34 11.32 7 12 C6.34 12 5.68 12 5 12 C4.9175 13.2375 4.835 14.475 4.75 15.75 C4.08305667 21.80965656 2.03197675 27.28458973 0 33 C-0.52351612 34.64498194 -1.04463104 36.29073151 -1.5625 37.9375 C-2.78765797 41.62636361 -4.20088398 45.20088398 -7 48 C-9.69082872 47.82364548 -12.32851446 47.38164079 -15 47 C-15.33 45.68 -15.66 44.36 -16 43 C-15.34 43 -14.68 43 -14 43 C-13.34 39.7 -12.68 36.4 -12 33 C-14.97 33 -17.94 33 -21 33 C-21.66 34.32 -22.32 35.64 -23 37 C-24.31200404 38.35432675 -25.64631404 39.68733482 -27 41 C-28.02323436 42.31558703 -29.03126968 43.64377755 -30 45 C-35.75 44.25 -35.75 44.25 -38 42 C-37.78612572 39.21963433 -37.64636192 37.56556668 -35.5 35.6875 C-33.01452219 32.89133747 -33.29976943 29.65718707 -33 26 C-31.329375 25.87625 -31.329375 25.87625 -29.625 25.75 C-28.42875 25.5025 -27.2325 25.255 -26 25 C-24.96930086 23.19530621 -24.96930086 23.19530621 -24 21 C-10.93266892 4.8149447 -10.93266892 4.8149447 -4.9453125 3.57421875 C-3 3.5625 -3 3.5625 0 4 C0 2.68 0 1.36 0 0 Z " fill="#5378AD" transform="translate(464,15)"/>
<path d="M0 0 C1.28874023 -0.01836914 1.28874023 -0.01836914 2.60351562 -0.03710938 C3.8497168 -0.04000977 3.8497168 -0.04000977 5.12109375 -0.04296875 C5.87704834 -0.04707764 6.63300293 -0.05118652 7.41186523 -0.05541992 C9.91902673 0.22777064 11.47884648 0.75996589 13.5625 2.1875 C14.3125 5.8125 14.3125 5.8125 14.5625 9.1875 C13.60988281 9.22488281 12.65726563 9.26226562 11.67578125 9.30078125 C9.79439453 9.39939453 9.79439453 9.39939453 7.875 9.5 C6.63363281 9.55800781 5.39226563 9.61601563 4.11328125 9.67578125 C-0.5261149 10.3443851 -3.15959256 11.90959256 -6.4375 15.1875 C-7.0800235 17.25624034 -7.0800235 17.25624034 -7.4375 19.1875 C-6.303125 19.166875 -5.16875 19.14625 -4 19.125 C-0.4375 19.1875 -0.4375 19.1875 0.5625 20.1875 C0.6875 22.6875 0.6875 22.6875 0.5625 25.1875 C-1.1535879 26.9035879 -3.32106047 26.25507474 -5.60693359 26.2746582 C-11.89373184 26.24449506 -11.89373184 26.24449506 -17.5078125 28.66796875 C-19.73616607 31.79700415 -20.49620086 34.42230344 -21.4375 38.1875 C-16.1575 38.1875 -10.8775 38.1875 -5.4375 38.1875 C-5.4375 39.5075 -5.4375 40.8275 -5.4375 42.1875 C-6.0975 42.1875 -6.7575 42.1875 -7.4375 42.1875 C-7.7675 43.1775 -8.0975 44.1675 -8.4375 45.1875 C-12.0416498 45.21650455 -15.64576962 45.23430018 -19.25 45.25 C-20.78624023 45.26256836 -20.78624023 45.26256836 -22.35351562 45.27539062 C-23.82788086 45.28022461 -23.82788086 45.28022461 -25.33203125 45.28515625 C-26.23800049 45.29039307 -27.14396973 45.29562988 -28.07739258 45.30102539 C-30.4375 45.1875 -30.4375 45.1875 -33.4375 44.1875 C-34.19344651 36.37605277 -32.39775838 31.34284654 -27.4375 25.1875 C-26.7775 25.1875 -26.1175 25.1875 -25.4375 25.1875 C-25.21191406 24.46046875 -24.98632812 23.7334375 -24.75390625 22.984375 C-23.15939959 19.59663978 -21.17588784 17.90389332 -18.375 15.4375 C-14.87330237 12.08191637 -12.79967307 9.96516229 -12.3125 5.0625 C-12.35375 3.78375 -12.395 2.505 -12.4375 1.1875 C-8.27634532 -0.19955156 -4.35784238 0.00325455 0 0 Z " fill="#7D63A5" transform="translate(556.4375,22.8125)"/>
<path d="M0 0 C2 1.0625 2 1.0625 3 2.0625 C3.5 4.1875 3.5 4.1875 3 7.0625 C1.00351957 9.84949435 -1.1989575 12.08332027 -4 14.0625 C-7.4375 14.5 -7.4375 14.5 -10 14.0625 C-11.2077558 10.43923261 -10.54311128 9.42103631 -9 6.0625 C-10.27208622 6.68494599 -11.54261882 7.31056767 -12.8125 7.9375 C-13.87404297 8.45957031 -13.87404297 8.45957031 -14.95703125 8.9921875 C-17.21246418 10.1281486 -17.21246418 10.1281486 -20 12.0625 C-20.72965366 14.62532742 -20.72965366 14.62532742 -21 17.0625 C-20.278125 17.289375 -19.55625 17.51625 -18.8125 17.75 C-15.43567583 19.32585128 -13.44232961 21.27126616 -11 24.0625 C-11 24.7225 -11 25.3825 -11 26.0625 C-10.34 26.0625 -9.68 26.0625 -9 26.0625 C-8.55261845 34.86100374 -8.55261845 34.86100374 -12 39.0625 C-17.74627344 44.75997282 -21.2725722 47.17660661 -29.4375 47.3125 C-36.83905616 47.22344384 -36.83905616 47.22344384 -40 44.0625 C-40.5922129 41.1014355 -40.42820518 39.73861344 -38.8125 37.1875 C-37 36.0625 -37 36.0625 -34.8125 36.375 C-33.884375 36.601875 -32.95625 36.82875 -32 37.0625 C-28.17384431 37.42072573 -24.98235872 37.68293709 -21.625 35.5625 C-21.08875 35.0675 -20.5525 34.5725 -20 34.0625 C-19.34 34.0625 -18.68 34.0625 -18 34.0625 C-18 32.4125 -18 30.7625 -18 29.0625 C-18.680625 28.835625 -19.36125 28.60875 -20.0625 28.375 C-27.68097166 24.97100202 -27.68097166 24.97100202 -30 22.0625 C-31.1289535 17.05747283 -30.83450211 12.6967333 -28.5 8.125 C-24.49736002 4.82282202 -20.28579696 2.0625 -15 2.0625 C-15 1.4025 -15 0.7425 -15 0.0625 C-10.03827373 -1.59140876 -4.99014098 -1.55941906 0 0 Z " fill="#E2E026" transform="translate(264,8.9375)"/>
<path d="M0 0 C5.75 0.875 5.75 0.875 8 2 C8.125 7.75 8.125 7.75 7 10 C6.34 10 5.68 10 5 10 C4.896875 10.515625 4.79375 11.03125 4.6875 11.5625 C3.24178434 16.68821917 1.04835173 21.62627796 -2 26 C-2.66 26 -3.32 26 -4 26 C-4.19335938 26.58007812 -4.38671875 27.16015625 -4.5859375 27.7578125 C-6.05729167 32.171875 -7.52864583 36.5859375 -9 41 C-8.43152344 40.855625 -7.86304688 40.71125 -7.27734375 40.5625 C-2.37737795 39.38454495 1.9645312 38.78572473 7 39 C7 43 7 43 5.5625 44.5625 C-0.66322386 48.05497924 -6.87688258 49.83103037 -14 49 C-17 47.625 -17 47.625 -19 45 C-20.42103519 37.99542833 -18.45788002 32.06381858 -15 26 C-14.01268258 24.65724831 -13.01405257 23.32267727 -12 22 C-10.96898053 19.68020619 -9.97063483 17.34570085 -9 15 C-6.54378017 9.61970893 -3.33817058 4.86141347 0 0 Z " fill="#AECC2C" transform="translate(302,7)"/>
<path d="M0 0 C2.97 0.495 2.97 0.495 6 1 C6.875 4.0625 6.875 4.0625 7 8 C4.625 11.0625 4.625 11.0625 2.95703125 12.78515625 C0.41280064 15.66455497 -1.61690003 18.77015268 -3.6875 22 C-4.25766846 22.87217163 -4.25766846 22.87217163 -4.83935547 23.76196289 C-7.3558502 27.70277372 -9.25664165 31.66097477 -11 36 C-11.66 36 -12.32 36 -13 36 C-13.103125 37.0725 -13.20625 38.145 -13.3125 39.25 C-14.30784983 44.67918089 -14.30784983 44.67918089 -17 47 C-20 47.5 -20 47.5 -23 47 C-24.9375 45.375 -24.9375 45.375 -26 43 C-25.67698711 37.5796862 -23.51418804 34.03864224 -20.625 29.625 C-20.18526855 28.93817139 -19.74553711 28.25134277 -19.29248047 27.54370117 C-7.08423878 8.61641135 -7.08423878 8.61641135 0 0 Z " fill="#6370AE" transform="translate(491,16)"/>
<path d="M0 0 C0 3.3 0 6.6 0 10 C-0.66 10 -1.32 10 -2 10 C-2.03738281 10.62648438 -2.07476562 11.25296875 -2.11328125 11.8984375 C-2.17902344 12.71570312 -2.24476563 13.53296875 -2.3125 14.375 C-2.37050781 15.18710937 -2.42851562 15.99921875 -2.48828125 16.8359375 C-3 19 -3 19 -6 21 C-6.72382467 23.05925139 -6.72382467 23.05925139 -7 25 C-7.66 25 -8.32 25 -9 25 C-9.309375 25.61875 -9.61875 26.2375 -9.9375 26.875 C-10.625 28.25 -11.3125 29.625 -12 31 C-13.32 31 -14.64 31 -16 31 C-16.9392816 22.12900714 -14.9570195 11.67684365 -9.77880859 4.24804688 C-5.26419768 -1.31604942 -5.26419768 -1.31604942 0 0 Z " fill="#FDFBF4" transform="translate(197,20)"/>
<path d="M0 0 C1.32 0.33 2.64 0.66 4 1 C4.90898761 12.45324384 -0.81975488 19.52663017 -8 28 C-9.5234375 29.7578125 -9.5234375 29.7578125 -11 31 C-11.99 31 -12.98 31 -14 31 C-14.0272415 29.58344207 -14.04650467 28.16672955 -14.0625 26.75 C-14.07410156 25.96109375 -14.08570313 25.1721875 -14.09765625 24.359375 C-14.00385306 22.09308998 -13.63241063 20.1711105 -13 18 C-12.34 18 -11.68 18 -11 18 C-10.87625 17.443125 -10.7525 16.88625 -10.625 16.3125 C-9.270288 11.30006559 -7.4166522 8.01476932 -3.875 4.1875 C-3.15054687 3.39730469 -2.42609375 2.60710938 -1.6796875 1.79296875 C-1.12539063 1.20128906 -0.57109375 0.60960938 0 0 Z " fill="#FAFCF8" transform="translate(339,17)"/>
<path d="M0 0 C6.72 0.72 6.72 0.72 8 2 C9.09843425 8.06635279 8.16895144 12.46078995 4.9375 17.6875 C1.81434515 22.14733979 -1.55115245 26.77348432 -6 30 C-6.99 30 -7.98 30 -9 30 C-7 25 -7 25 -6 22.5625 C-3.54397324 16.26893144 -2.23805127 10.25554749 -1.39453125 3.5546875 C-1 1 -1 1 0 0 Z " fill="#FCF5ED" transform="translate(150,20)"/>
<path d="M0 0 C5.75 -0.125 5.75 -0.125 8 1 C8.47181905 4.96328 8.17601286 7.25902018 5.75 10.375 C3 13 3 13 -1 13 C-1.2236337 11.58566794 -1.42826476 10.16832382 -1.625 8.75 C-1.74101562 7.96109375 -1.85703125 7.1721875 -1.9765625 6.359375 C-2.00319395 3.67847541 -1.36592084 2.27305911 0 0 Z " fill="#EEDF2F" transform="translate(224,9)"/>
<path d="M0 0 C2.1640625 0.0234375 2.1640625 0.0234375 4.625 0.375 C5.85089844 0.54128906 5.85089844 0.54128906 7.1015625 0.7109375 C7.72804688 0.80632813 8.35453125 0.90171875 9 1 C8.9375 3.3125 8.9375 3.3125 8 6 C4.6875 7.6875 4.6875 7.6875 1 9 C0.2575 9.4125 -0.485 9.825 -1.25 10.25 C-3 11 -3 11 -6 10 C-5.38003922 8.70590711 -4.75383647 7.41480327 -4.125 6.125 C-3.77695312 5.40570312 -3.42890625 4.68640625 -3.0703125 3.9453125 C-2 2 -2 2 0 0 Z " fill="#E1EBEE" transform="translate(417,19)"/>
<path d="M0 0 C0.33 1.32 0.66 2.64 1 4 C-3.02167317 6.96837781 -6.00088076 8.52389341 -11 9 C-10.6875 5.625 -10.6875 5.625 -10 2 C-6.3558226 -0.4294516 -4.28758728 -0.16179575 0 0 Z " fill="#EBF4EE" transform="translate(384,18)"/>
<path d="M0 0 C-0.56398996 3.50588356 -1.66963773 4.98982392 -4.375 7.25 C-4.98085938 7.77078125 -5.58671875 8.2915625 -6.2109375 8.828125 C-8 10 -8 10 -11 10 C-11.2145758 6.85288821 -11.23318878 4.55382336 -10 1.625 C-6.82368122 -0.95575901 -4.00554268 -0.26265854 0 0 Z " fill="#FCEDEB" transform="translate(40,30)"/>
<path d="M0 0 C0 0.33 0 0.66 0 1 C-1.010625 1.165 -2.02125 1.33 -3.0625 1.5 C-7.38121488 2.73762771 -9.33728218 5.27421706 -12.08984375 8.69140625 C-15.43598424 12.7355147 -19.25362953 16.33008607 -23 20 C-23.99 19.67 -24.98 19.34 -26 19 C-7.95248092 -0.97377317 -7.95248092 -0.97377317 0 0 Z " fill="#7A97BF" transform="translate(464,19)"/>
<path d="M0 0 C-0.28359887 1.4391134 -0.57721399 2.87625518 -0.875 4.3125 C-1.03742188 5.11300781 -1.19984375 5.91351563 -1.3671875 6.73828125 C-2 9 -2 9 -4 12 C-7.625 12.1875 -7.625 12.1875 -11 12 C-10.44040477 8.17753412 -8.78682643 6.41028259 -6.0625 3.75 C-5.35222656 3.04359375 -4.64195312 2.3371875 -3.91015625 1.609375 C-2 0 -2 0 0 0 Z " fill="#A7B8D6" transform="translate(461,28)"/>
<path d="M0 0 C0.66 0 1.32 0 2 0 C2 4.29 2 8.58 2 13 C-0.64 13 -3.28 13 -6 13 C-5.39148357 9.592308 -4.06700371 7.7284449 -2 5 C-1.28837557 3.35202764 -0.60968047 1.68834592 0 0 Z " fill="#F6CABD" transform="translate(74,32)"/>
<path d="M0 0 C1 1 1 1 1.0625 4.5625 C1.041875 5.696875 1.02125 6.83125 1 8 C-0.98 8.99 -0.98 8.99 -3 10 C-2.34 9.01 -1.68 8.02 -1 7 C-0.83286431 4.37468476 -0.83286431 4.37468476 -1 2 C-4.92857754 0.14868517 -7.98775112 -0.22004943 -12.3125 -0.125 C-13.38113281 -0.10695313 -14.44976562 -0.08890625 -15.55078125 -0.0703125 C-16.76314453 -0.03550781 -16.76314453 -0.03550781 -18 0 C-18 0.66 -18 1.32 -18 2 C-24.625 5 -24.625 5 -28 5 C-26.625 3.5 -26.625 3.5 -25 2 C-24.34 2 -23.68 2 -23 2 C-23 1.34 -23 0.68 -23 0 C-15.44435598 -2.68645121 -7.41011639 -3.48405473 0 0 Z " fill="#F0F0A9" transform="translate(267,9)"/>
<path d="M0 0 C0.66 0 1.32 0 2 0 C2.18451025 17.85649203 2.18451025 17.85649203 1 26 C0.67 26 0.34 26 0 26 C-0.33 19.07 -0.66 12.14 -1 5 C-1.33 5.99 -1.66 6.98 -2 8 C-2.66 8 -3.32 8 -4 8 C-2.87548273 5.0280615 -1.77706209 2.66559313 0 0 Z " fill="#B2B0D2" transform="translate(505,39)"/>
<path d="M0 0 C0.625 1.8125 0.625 1.8125 1 4 C0.01 5.485 0.01 5.485 -1 7 C-1.66 7 -2.32 7 -3 7 C-3 9.31 -3 11.62 -3 14 C5.25 14 13.5 14 22 14 C21.67 14.66 21.34 15.32 21 16 C17.3958502 16.02900455 13.79173038 16.04680018 10.1875 16.0625 C8.65125977 16.07506836 8.65125977 16.07506836 7.08398438 16.08789062 C5.60961914 16.09272461 5.60961914 16.09272461 4.10546875 16.09765625 C3.19949951 16.10289307 2.29353027 16.10812988 1.36010742 16.11352539 C-1 16 -1 16 -4 15 C-4.51211281 8.59858988 -4.11888494 5.01989102 0 0 Z " fill="#9E8EBD" transform="translate(527,52)"/>
<path d="M0 0 C1.32 0.33 2.64 0.66 4 1 C4 3.97 4 6.94 4 10 C3.67 10 3.34 10 3 10 C3 7.69 3 5.38 3 3 C-0.63 5.97 -4.26 8.94 -8 12 C-8 8.03869629 -6.65122875 7.17085599 -4 4.3125 C-3.2575 3.50425781 -2.515 2.69601563 -1.75 1.86328125 C-1.1725 1.24839844 -0.595 0.63351563 0 0 Z " fill="#CFE7BE" transform="translate(339,17)"/>
<path d="M0 0 C0.66 0.33 1.32 0.66 2 1 C0.23598822 2.98563635 -1.53561883 4.96343656 -3.3125 6.9375 C-3.81201172 7.50146484 -4.31152344 8.06542969 -4.82617188 8.64648438 C-8.66015625 12.88671875 -8.66015625 12.88671875 -12 14 C-10.60089587 9.47301364 -8.4384826 7.24844018 -4.875 4.1875 C-3.96492188 3.39730469 -3.05484375 2.60710938 -2.1171875 1.79296875 C-1.06917969 0.90544922 -1.06917969 0.90544922 0 0 Z " fill="#9BC962" transform="translate(334,10)"/>
<path d="M0 0 C1.4540625 0.3403125 1.4540625 0.3403125 2.9375 0.6875 C6.27233037 0.78979541 9.6019432 0.74579128 12.9375 0.6875 C12.6075 1.3475 12.2775 2.0075 11.9375 2.6875 C10.01171875 3.1015625 10.01171875 3.1015625 7.625 3.3125 C6.45517578 3.42464844 6.45517578 3.42464844 5.26171875 3.5390625 C3.15735253 3.673459 1.04615351 3.6875 -1.0625 3.6875 C-1.7225 5.0075 -2.3825 6.3275 -3.0625 7.6875 C-3.7225 7.6875 -4.3825 7.6875 -5.0625 7.6875 C-5.28982116 4.88387237 -5.40331872 3.22563483 -3.875 0.8125 C-2.0625 -0.3125 -2.0625 -0.3125 0 0 Z " fill="#F2E96E" transform="translate(229.0625,45.3125)"/>
<path d="M0 0 C1.125 3.75 1.125 3.75 0 6 C-0.66 6 -1.32 6 -2 6 C-2.33 8.31 -2.66 10.62 -3 13 C3.435 12.505 3.435 12.505 10 12 C10 12.33 10 12.66 10 13 C4.92523206 14.26305335 0.27203646 15.27036084 -5 15 C-3.25740319 4.44191344 -3.25740319 4.44191344 0 0 Z " fill="#D7E59B" transform="translate(298,33)"/>
<path d="M0 0 C0 3.3 0 6.6 0 10 C-0.33 10 -0.66 10 -1 10 C-1.33 7.36 -1.66 4.72 -2 2 C-3.15227823 2.76116551 -4.2966386 3.53432693 -5.4375 4.3125 C-6.07558594 4.74175781 -6.71367187 5.17101562 -7.37109375 5.61328125 C-9.2885684 7.0034052 -9.2885684 7.0034052 -10 10 C-10.66 10 -11.32 10 -12 10 C-9.82524115 3.65695336 -7.20822629 -1.80205657 0 0 Z " fill="#F8EABC" transform="translate(197,20)"/>
<path d="M0 0 C1.57043101 0.01330874 3.14079971 0.03717648 4.7109375 0.0703125 C5.51273437 0.07933594 6.31453125 0.08835937 7.140625 0.09765625 C9.12252273 0.12125027 11.10426731 0.15712185 13.0859375 0.1953125 C13.0859375 0.5253125 13.0859375 0.8553125 13.0859375 1.1953125 C7.8059375 1.1953125 2.5259375 1.1953125 -2.9140625 1.1953125 C-3.0171875 2.7834375 -3.1203125 4.3715625 -3.2265625 6.0078125 C-3.53425481 10.74627404 -3.53425481 10.74627404 -5.45703125 13.01953125 C-6.17826172 13.60154297 -6.17826172 13.60154297 -6.9140625 14.1953125 C-6.80023597 12.23629796 -6.67265125 10.2780787 -6.5390625 8.3203125 C-6.46945312 7.22976562 -6.39984375 6.13921875 -6.328125 5.015625 C-5.65765383 0.44883078 -4.56455754 0.22777233 0 0 Z " fill="#8FBBBB" transform="translate(409.9140625,10.8046875)"/>
<path d="M0 0 C1.05579601 3.257243 0.91586439 5.48507994 0.1875 8.8125 C-0.00328125 9.6890625 -0.1940625 10.565625 -0.390625 11.46875 C-1.16270786 14.67586342 -2.06931096 17.83565728 -3 21 C-3.35371498 22.66246041 -3.69595322 24.32774271 -4 26 C-4.33 26 -4.66 26 -5 26 C-5.18451025 15.44191344 -5.18451025 15.44191344 -4 11 C-3.34 11 -2.68 11 -2 11 C-1.93941406 10.37351562 -1.87882813 9.74703125 -1.81640625 9.1015625 C-1.73261719 8.28429688 -1.64882812 7.46703125 -1.5625 6.625 C-1.48128906 5.81289063 -1.40007813 5.00078125 -1.31640625 4.1640625 C-1 2 -1 2 0 0 Z " fill="#F4A7A6" transform="translate(16,43)"/>
<path d="M0 0 C1.32 0 2.64 0 4 0 C4.12375 1.010625 4.2475 2.02125 4.375 3.0625 C4.90683527 6.99905755 4.90683527 6.99905755 6.125 10.6875 C6.98746478 13.95254525 6.94793201 14.93590991 6 18 C4.460779 14.11848616 3.11245542 10.68722756 2.4375 6.5625 C2.293125 5.716875 2.14875 4.87125 2 4 C1.34 3.67 0.68 3.34 0 3 C-0.33 4.32 -0.66 5.64 -1 7 C-1.33 6.34 -1.66 5.68 -2 5 C-1.0625 2.375 -1.0625 2.375 0 0 Z " fill="#A8D2AE" transform="translate(364,38)"/>
<path d="M0 0 C1.5625 1.75 1.5625 1.75 3 4 C2.6875 6.25 2.6875 6.25 2 8 C1.34 7.01 0.68 6.02 0 5 C-0.19335938 6.13179687 -0.38671875 7.26359375 -0.5859375 8.4296875 C-0.84854286 9.91153202 -1.11158648 11.39329892 -1.375 12.875 C-1.50132813 13.62136719 -1.62765625 14.36773437 -1.7578125 15.13671875 C-2.7734375 20.7734375 -2.7734375 20.7734375 -5 23 C-3.76595745 3.76595745 -3.76595745 3.76595745 0 0 Z " fill="#F7D7CA" transform="translate(104,37)"/>
<path d="M0 0 C0.99 0 1.98 0 3 0 C3.13277344 0.78246094 3.26554687 1.56492188 3.40234375 2.37109375 C3.57894531 3.38300781 3.75554687 4.39492188 3.9375 5.4375 C4.11152344 6.44683594 4.28554688 7.45617188 4.46484375 8.49609375 C4.74751097 10.9287438 4.74751097 10.9287438 6 12 C6.04080783 13.99958364 6.04254356 16.00045254 6 18 C5.34 17.67 4.68 17.34 4 17 C3.3671875 14.85546875 3.3671875 14.85546875 2.875 12.1875 C2.70742188 11.31480469 2.53984375 10.44210938 2.3671875 9.54296875 C2 7 2 7 2 3 C1.34 3 0.68 3 0 3 C0 3.99 0 4.98 0 6 C-0.66 6 -1.32 6 -2 6 C-1.34 4.02 -0.68 2.04 0 0 Z " fill="#ABCCCB" transform="translate(404,39)"/>
<path d="M0 0 C0 0.66 0 1.32 0 2 C-4.98050339 5.14558109 -10.21076464 6.26546108 -16 5 C-17.80078125 2.97265625 -17.80078125 2.97265625 -19 1 C-18.01 1.33 -17.02 1.66 -16 2 C-10.22397979 2.28406657 -5.44274674 0 0 0 Z " fill="#B0D482" transform="translate(337,52)"/>
<path d="M0 0 C0.33 1.32 0.66 2.64 1 4 C1.99 4 2.98 4 4 4 C3.34 5.98 2.68 7.96 2 10 C1.34 9.01 0.68 8.02 0 7 C-2.475 8.485 -2.475 8.485 -5 10 C-3.66511872 6.40608886 -2.03977277 3.24509304 0 0 Z " fill="#D3EACC" transform="translate(350,34)"/>
<path d="M0 0 C0.66 0 1.32 0 2 0 C2.05441656 1.89551022 2.09298035 3.7914792 2.125 5.6875 C2.14820313 6.74324219 2.17140625 7.79898437 2.1953125 8.88671875 C1.85105606 14.37416638 0.04087636 17.36321128 -4 21 C-4.33 20.34 -4.66 19.68 -5 19 C-4.00390625 17.44140625 -4.00390625 17.44140625 -2.5625 15.5625 C0.79484829 10.52647756 0.48506544 5.86390227 0 0 Z " fill="#EEB766" transform="translate(157,21)"/>
<path d="M0 0 C2.97 0.495 2.97 0.495 6 1 C6.33 3.31 6.66 5.62 7 8 C5 4.25 5 4.25 5 2 C3.9171875 2.6496875 3.9171875 2.6496875 2.8125 3.3125 C0.20833333 4.875 -2.39583333 6.4375 -5 8 C-3.62845496 5.04590299 -2.01136276 2.55991624 0 0 Z " fill="#8B8EBF" transform="translate(491,16)"/>
<path d="M0 0 C0.33 0.66 0.66 1.32 1 2 C0.23598666 3.66089856 -0.52854051 5.32156474 -1.296875 6.98046875 C-2.47256508 10.35731194 -2.18659958 13.45460793 -2 17 C-2.66 16.67 -3.32 16.34 -4 16 C-4.63019694 6.00437637 -4.63019694 6.00437637 -2 1.8125 C-1.34 1.214375 -0.68 0.61625 0 0 Z " fill="#F2EC6F" transform="translate(238,15)"/>
<path d="M0 0 C1.98 0.99 1.98 0.99 4 2 C4.66 1.34 5.32 0.68 6 0 C6.268125 0.804375 6.53625 1.60875 6.8125 2.4375 C7.204375 3.283125 7.59625 4.12875 8 5 C8.99 5.33 9.98 5.66 11 6 C11 7.65 11 9.3 11 11 C10.67 9.68 10.34 8.36 10 7 C7.36 6.67 4.72 6.34 2 6 C1.34 4.02 0.68 2.04 0 0 Z " fill="#F6D6BE" transform="translate(128,16)"/>
<path d="M0 0 C0.33 0 0.66 0 1 0 C1 3.63 1 7.26 1 11 C1.66 11.33 2.32 11.66 3 12 C3 12.66 3 13.32 3 14 C0.525 13.01 0.525 13.01 -2 12 C-2 9.69 -2 7.38 -2 5 C-1.34 5 -0.68 5 0 5 C0 3.35 0 1.7 0 0 Z " fill="#F3BAA4" transform="translate(90,49)"/>
<path d="M0 0 C1.43088528 2.86177057 0.59991697 4.93375773 0 8 C1.175625 7.2265625 1.175625 7.2265625 2.375 6.4375 C3.24125 5.963125 4.1075 5.48875 5 5 C5.66 5.33 6.32 5.66 7 6 C5.02579865 8.52259061 4.03254358 8.9929808 0.8125 9.6875 C-0.5796875 9.8421875 -0.5796875 9.8421875 -2 10 C-1.85950482 8.52031676 -1.71245174 7.04125484 -1.5625 5.5625 C-1.48128906 4.73878906 -1.40007813 3.91507813 -1.31640625 3.06640625 C-1 1 -1 1 0 0 Z " fill="#F08E83" transform="translate(29,32)"/>
<path d="M0 0 C0.66 0 1.32 0 2 0 C0.125 5.75 0.125 5.75 -1 8 C-2.32 8 -3.64 8 -5 8 C-3.63055898 5.05043472 -2.12169591 2.47531189 0 0 Z " fill="#F1F3F8" transform="translate(457,31)"/>
<path d="M0 0 C5.75 0.875 5.75 0.875 8 2 C8 2.66 8 3.32 8 4 C7.01 4 6.02 4 5 4 C5 3.34 5 2.68 5 2 C1.04 3.98 1.04 3.98 -3 6 C-2 4 -1 2 0 0 Z " fill="#BFD86F" transform="translate(302,7)"/>
<path d="M0 0 C0.625 1.8125 0.625 1.8125 1 4 C0.01 5.485 0.01 5.485 -1 7 C-1.66 7 -2.32 7 -3 7 C-2.67 9.64 -2.34 12.28 -2 15 C-2.66 15 -3.32 15 -4 15 C-4.51211281 8.59858988 -4.11888494 5.01989102 0 0 Z " fill="#B5ACCF" transform="translate(527,52)"/>
<path d="M0 0 C-0.33 2.31 -0.66 4.62 -1 7 C1.97 7.495 1.97 7.495 5 8 C5 8.33 5 8.66 5 9 C2.36 9 -0.28 9 -3 9 C-2.67 6.69 -2.34 4.38 -2 2 C-2.99 1.67 -3.98 1.34 -5 1 C-2 0 -2 0 0 0 Z " fill="#EEEF9F" transform="translate(255,15)"/>
<path d="M0 0 C1 2 1 2 0.25 4.5625 C-1 7 -1 7 -4 8 C-4 8.99 -4 9.98 -4 11 C-4.66 11 -5.32 11 -6 11 C-4.54955729 6.89041233 -2.48889248 3.56741255 0 0 Z " fill="#939EC8" transform="translate(475,39)"/>
<path d="M0 0 C0.66 0.33 1.32 0.66 2 1 C1.0409375 2.1446875 1.0409375 2.1446875 0.0625 3.3125 C-2.14232781 5.88246713 -2.14232781 5.88246713 -3 9 C-3.66 9 -4.32 9 -5 9 C-5.3125 6.75 -5.3125 6.75 -5 4 C-2.5 1.6875 -2.5 1.6875 0 0 Z " fill="#F5F3B1" transform="translate(248,17)"/>
<path d="M0 0 C2 2 2 2 2.3125 5.375 C2 9 2 9 -1 13 C-0.67 8.71 -0.34 4.42 0 0 Z " fill="#F09E8C" transform="translate(51,52)"/>
<path d="M0 0 C1.65 0.33 3.3 0.66 5 1 C5.33 2.32 5.66 3.64 6 5 C3.36 4.67 0.72 4.34 -2 4 C-1.34 2.68 -0.68 1.36 0 0 Z " fill="#AA9EC7" transform="translate(531,20)"/>
<path d="M0 0 C0.33 0 0.66 0 1 0 C1 2.31 1 4.62 1 7 C-0.65 7.33 -2.3 7.66 -4 8 C-4.33 7.34 -4.66 6.68 -5 6 C-3.68 6 -2.36 6 -1 6 C-1.020625 5.195625 -1.04125 4.39125 -1.0625 3.5625 C-1 1 -1 1 0 0 Z " fill="#EEA37C" transform="translate(119,56)"/>
<path d="M0 0 C1.5625 1.75 1.5625 1.75 3 4 C2.6875 6.25 2.6875 6.25 2 8 C1.34 7.01 0.68 6.02 0 5 C-0.66 5.66 -1.32 6.32 -2 7 C-1.125 1.125 -1.125 1.125 0 0 Z " fill="#F5C7B2" transform="translate(104,37)"/>
<path d="M0 0 C0.33 0.66 0.66 1.32 1 2 C0.67 2.99 0.34 3.98 0 5 C0.99 5.33 1.98 5.66 3 6 C2 7 2 7 -0.5625 7.0625 C-1.7690625 7.0315625 -1.7690625 7.0315625 -3 7 C-2.38722388 4.03824877 -1.74627478 2.61941217 0 0 Z " fill="#9FCCA9" transform="translate(373,22)"/>
<path d="M0 0 C3.86107457 2.57404971 3.94319692 4.61020259 5 9 C3.0625 8.4375 3.0625 8.4375 1 7 C0.25 3.375 0.25 3.375 0 0 Z " fill="#EC9266" transform="translate(109,53)"/>
<path d="M0 0 C0.66 0 1.32 0 2 0 C2.66 1.98 3.32 3.96 4 6 C3.34 6 2.68 6 2 6 C2 5.34 2 4.68 2 4 C1.34 4 0.68 4 0 4 C-0.33 4.99 -0.66 5.98 -1 7 C-0.67 4.69 -0.34 2.38 0 0 Z " fill="#F7CCC9" transform="translate(25,52)"/>
<path d="M0 0 C0.33 0.66 0.66 1.32 1 2 C-0.25 5.0625 -0.25 5.0625 -2 8 C-2.99 8.33 -3.98 8.66 -5 9 C-3.7508258 5.54074837 -2.32472205 2.85306797 0 0 Z " fill="#A3A5CC" transform="translate(495,39)"/>
<path d="M0 0 C0.33 0.66 0.66 1.32 1 2 C0.67 2.99 0.34 3.98 0 5 C1.32 4.67 2.64 4.34 4 4 C3.67 4.66 3.34 5.32 3 6 C-0.0625 6.625 -0.0625 6.625 -3 7 C-2.01 4.69 -1.02 2.38 0 0 Z " fill="#C3D9DB" transform="translate(414,23)"/>
<path d="M0 0 C1.46726798 3.81489674 0.43336419 6.29011622 -1 10 C-1.33 10 -1.66 10 -2 10 C-2.25 3.375 -2.25 3.375 0 0 Z " fill="#F4BEA8" transform="translate(93,39)"/>
</svg>
