<?xml version="1.0" encoding="UTF-8"?>
<svg version="1.1" xmlns="http://www.w3.org/2000/svg" width="181" height="128">
<path d="M0 0 C59.73 0 119.46 0 181 0 C181 42.24 181 84.48 181 128 C121.27 128 61.54 128 0 128 C0 85.76 0 43.52 0 0 Z " fill="#FCFBF9" transform="translate(0,0)"/>
<path d="M0 0 C0.5775 0.495 1.155 0.99 1.75 1.5 C4.10400629 3.36980013 4.10400629 3.36980013 8 3 C10.5587167 7.88296932 10.34524627 12.68784017 10.3125 18.0625 C10.30758545 19.00262939 10.3026709 19.94275879 10.29760742 20.91137695 C10.09383667 33.02789933 7.3246311 43.84502696 0 53.6875 C-2 55 -2 55 -4.5 55.125 C-8.04317006 53.53057347 -9.15628765 51.35819034 -11 48 C-15.04761188 36.04480199 -11.55404274 20.68833735 -6.46875 9.6875 C-2.82083333 2.82083333 -2.82083333 2.82083333 0 0 Z " fill="#E37031" transform="translate(31,69)"/>
<path d="M0 0 C3.00197464 1.80118478 4.45166366 2.90332732 6 6 C6.99458369 13.51621106 5.49160591 18.924512 1 25 C0.28328125 25.63035156 -0.4334375 26.26070312 -1.171875 26.91015625 C-3.23588708 28.87257139 -3.23588708 28.87257139 -3.3125 31.62890625 C-2.62403989 38.09182553 -1.32329988 43.70403124 1.16015625 49.72265625 C2 52 2 52 2 55 C1.01 55 0.02 55 -1 55 C-1.33 55.99 -1.66 56.98 -2 58 C-7.52020229 54.31986514 -8.43461931 46.79847649 -9.69921875 40.5390625 C-10.17474212 37.69941233 -10.59282103 34.85025277 -11 32 C-12.32 38.6 -13.64 45.2 -15 52 C-16.485 52.495 -16.485 52.495 -18 53 C-18.99 52.34 -19.98 51.68 -21 51 C-21.49655202 45.10586298 -20.54703255 39.84361033 -19.1875 34.125 C-19.00735352 33.33270996 -18.82720703 32.54041992 -18.64160156 31.72412109 C-17.68939002 27.61612884 -16.60586912 23.62124582 -15.25 19.625 C-13.70623319 14.9033728 -13.87940259 10.48954613 -14.1875 5.56640625 C-14 3 -14 3 -12.8359375 1.1796875 C-9.03937109 -1.25980837 -4.31673469 -0.58692445 0 0 Z " fill="#C8D31F" transform="translate(87,66)"/>
<path d="M0 0 C3.59022838 2.67507213 4.63808069 4.02589465 5.4296875 8.34375 C5.74295713 14.31430064 4.48932696 19.12601949 1 24 C0.05125 24.763125 -0.8975 25.52625 -1.875 26.3125 C-4.24147006 28.73795701 -4.24147006 28.73795701 -4.01171875 31.36328125 C-3.03504732 37.36768736 -1.07562877 42.96221921 1.1953125 48.58984375 C2 51 2 51 2 55 C0.35 55.66 -1.3 56.32 -3 57 C-5.65861921 53.03873356 -7.02205592 49.0801499 -8.1875 44.5 C-8.36474609 43.84902344 -8.54199219 43.19804688 -8.72460938 42.52734375 C-9.6623539 38.94291489 -10.20660202 35.70458792 -10 32 C-10.66 32 -11.32 32 -12 32 C-12.04898438 32.66644531 -12.09796875 33.33289063 -12.1484375 34.01953125 C-12.69664269 40.77757799 -13.67552143 47.35188914 -15 54 C-17.4375 53.625 -17.4375 53.625 -20 53 C-22.49633984 48.00732032 -20.72121629 42.03686267 -19.43359375 36.88671875 C-19.10957786 35.54242566 -18.78602465 34.19802097 -18.46289062 32.85351562 C-17.95326621 30.77220266 -17.4387302 28.6923834 -16.9152832 26.61450195 C-14.19134935 15.88921315 -14.19134935 15.88921315 -15.05102539 4.92895508 C-15 3 -15 3 -13.19287109 1.26855469 C-9.0528527 -1.12640585 -4.60703487 -0.8110017 0 0 Z " fill="#E8A627" transform="translate(62,67)"/>
<path d="M0 0 C3.70102152 0.92525538 4.94961017 3.37169867 6.96875 6.4921875 C10.82740777 18.0681608 6.51540677 30.65680423 1.69921875 41.296875 C-0.70585382 45.8321547 -3.60795002 49.67765324 -7.03125 53.4921875 C-9.38296131 52.89357008 -11.7171878 52.22294398 -14.03125 51.4921875 C-15.87709393 47.80049963 -15.59086479 43.39734839 -14.44506836 39.49658203 C-14.19378174 38.81708496 -13.94249512 38.13758789 -13.68359375 37.4375 C-11.80269577 32.02504046 -10.56864693 26.52128649 -9.34375 20.9296875 C-9.11880859 19.92099609 -8.89386719 18.91230469 -8.66210938 17.87304688 C-8.11428392 15.41366026 -7.57075318 12.95341059 -7.03125 10.4921875 C-7.69125 10.4921875 -8.35125 10.4921875 -9.03125 10.4921875 C-9.36125 8.1821875 -9.69125 5.8721875 -10.03125 3.4921875 C-7.02487884 0.48581634 -4.23610544 -0.14225727 0 0 Z " fill="#C0D01C" transform="translate(98.03125,0.5078125)"/>
<path d="M0 0 C2.4375 0.25 2.4375 0.25 5 1 C7.05127844 4.07691766 7.27260872 4.93644999 7.4140625 8.44921875 C7.44967285 9.21322998 7.4852832 9.97724121 7.52197266 10.7644043 C7.55597168 11.72902588 7.5899707 12.69364746 7.625 13.6875 C7.74875 16.760625 7.8725 19.83375 8 23 C10.31 16.73 12.62 10.46 15 4 C16.32 4 17.64 4 19 4 C20.43695931 10.86460454 19.36301377 14.76845461 16.5 21.0625 C11.75664415 32.11485674 8.31897725 43.45272499 5 55 C3.03808594 53.8737793 3.03808594 53.8737793 1 52 C0.45410156 49.27270508 0.45410156 49.27270508 0.390625 46.01953125 C0.36000977 44.97128174 0.32939453 43.92303223 0.29785156 42.84301758 C0.28206055 41.51294678 0.26626953 40.18287598 0.25 38.8125 C0.1675 34.584375 0.085 30.35625 0 26 C-2.31 34.25 -4.62 42.5 -7 51 C-7.99 51 -8.98 51 -10 51 C-12.50003997 47.24994005 -12.30751381 45.45446634 -12 41 C-11.09790039 37.50244141 -11.09790039 37.50244141 -9.84765625 33.8515625 C-9.62806747 33.1947348 -9.4084787 32.5379071 -9.18223572 31.86117554 C-8.48553181 29.77895861 -7.77559474 27.70165569 -7.0625 25.625 C-2.92684256 13.57085233 -2.92684256 13.57085233 -1 1 C-0.67 0.67 -0.34 0.34 0 0 Z " fill="#4D66A5" transform="translate(139,69)"/>
<path d="M0 0 C2.4375 0.375 2.4375 0.375 5 1 C9.04339755 9.08679511 5.08428322 22.01274351 3.54638672 30.58422852 C3.12170553 32.95589826 2.71406736 35.33005669 2.30859375 37.70507812 C2.04265187 39.22933889 1.77575925 40.75343414 1.5078125 42.27734375 C1.3868924 42.97947495 1.26597229 43.68160614 1.14138794 44.40501404 C0.46283884 48.14700186 -0.44109803 51.52797656 -2 55 C-3.65 54.01 -5.3 53.02 -7 52 C-6.42978066 46.6496441 -5.79265639 41.32212148 -5 36 C-7.44409541 36.07711969 -7.44409541 36.07711969 -10 37 C-11.44452838 39.4162924 -11.44452838 39.4162924 -12.25 42.375 C-12.56453125 43.35210937 -12.8790625 44.32921875 -13.203125 45.3359375 C-13.59757812 46.65464844 -13.59757812 46.65464844 -14 48 C-14.33 48.99 -14.66 49.98 -15 51 C-17.86724686 50.42655063 -18.8614515 50.1385485 -21 48 C-21.17449217 44.98503018 -20.71359114 41.99629971 -20.375 39 C-20.30410156 38.16726562 -20.23320313 37.33453125 -20.16015625 36.4765625 C-20.07378906 35.67992187 -19.98742187 34.88328125 -19.8984375 34.0625 C-19.82286621 33.33160156 -19.74729492 32.60070312 -19.66943359 31.84765625 C-18.7460451 29.29907707 -17.38276503 29.15357192 -15 28 C-13.69288357 26.08565149 -13.69288357 26.08565149 -12.74609375 23.7890625 C-12.36646484 22.95632812 -11.98683594 22.12359375 -11.59570312 21.265625 C-11.21349609 20.39421875 -10.83128906 19.5228125 -10.4375 18.625 C-9.66952346 16.90698904 -8.89751498 15.1907736 -8.12109375 13.4765625 C-7.7852124 12.71424316 -7.44933105 11.95192383 -7.10327148 11.16650391 C-5.92452657 8.85179216 -4.74409947 6.92949048 -3 5 C-2.01 5 -1.02 5 0 5 C0 3.35 0 1.7 0 0 Z " fill="#4CA24A" transform="translate(111,67)"/>
<path d="M0 0 C0.66 0 1.32 0 2 0 C2.33 1.65 2.66 3.3 3 5 C4.32 5.33 5.64 5.66 7 6 C7.05455703 8.97941998 7.09393851 11.95781531 7.125 14.9375 C7.15013672 16.18370117 7.15013672 16.18370117 7.17578125 17.45507812 C7.24268572 26.05230215 5.55500031 33.32437921 2.1875 41.25 C1.70667969 42.41015625 1.22585937 43.5703125 0.73046875 44.765625 C-1.11864926 48.22176431 -3.01271162 50.47593039 -6 53 C-8.6875 53.125 -8.6875 53.125 -11 52 C-15.660963 43.42253337 -13.56157343 29.3421719 -11.19140625 20.28515625 C-8.69293083 13.39591746 -5.22015088 5.22015088 0 0 Z " fill="#6DA854" transform="translate(119,2)"/>
<path d="M0 0 C3.87526233 3.27244375 5.81351408 5.32162676 6.375 10.375 C6.32812532 16.74995681 3.51986946 24.48013054 -1 29 C-0.65657348 35.6307735 1.96050698 42.1535193 4.1953125 48.3359375 C5 51 5 51 5 55 C4.34 55 3.68 55 3 55 C3 55.66 3 56.32 3 57 C-0.73827252 55.51683166 -0.73827252 55.51683166 -1.8972168 53.22827148 C-2.07937744 52.53290283 -2.26153809 51.83753418 -2.44921875 51.12109375 C-2.65740234 50.36505859 -2.86558594 49.60902344 -3.08007812 48.83007812 C-3.28052734 48.04052734 -3.48097656 47.25097656 -3.6875 46.4375 C-4.64432233 41.31648261 -4.64432233 41.31648261 -7 37 C-7.66 42.94 -8.32 48.88 -9 55 C-10.32 55 -11.64 55 -13 55 C-16.4164227 48.1671546 -13.54369403 37.44991987 -12.5 30.1875 C-11.39153252 22.17737046 -10.71945761 14.69024371 -11.3828125 6.609375 C-11 4 -11 4 -8.6796875 1.67578125 C-5.3833514 -0.3856301 -3.81956232 -0.71616793 0 0 Z " fill="#E55429" transform="translate(37,6)"/>
<path d="M0 0 C2.86724686 0.57344937 3.8614515 0.8614515 6 3 C6.43664278 5.27739176 6.77782378 7.57366787 7.0625 9.875 C7.54434458 13.68993476 8.06619873 17.26479492 9 21 C10.32 14.4 11.64 7.8 13 1 C13.99 1 14.98 1 16 1 C18.54539972 4.74323488 17.79166834 7.79902705 17 12 C16.24744987 15.59229353 15.43566345 19.17044322 14.625 22.75 C12.31742504 33.11362567 10.50802796 43.49284582 9 54 C8.34 54 7.68 54 7 54 C5.01170215 51.01755322 4.7011314 50.0532966 4.40234375 46.65625 C4.32306641 45.82222656 4.24378906 44.98820312 4.16210938 44.12890625 C4.08798828 43.26136719 4.01386719 42.39382812 3.9375 41.5 C3.78296664 39.78097596 3.62553431 38.06220942 3.46484375 36.34375 C3.399021 35.58255859 3.33319824 34.82136719 3.26538086 34.03710938 C3.04018759 31.80218681 3.04018759 31.80218681 2 29 C1.87153687 29.93066284 1.87153687 29.93066284 1.74047852 30.88012695 C1.3507567 33.69133434 0.9566787 36.50191423 0.5625 39.3125 C0.42779297 40.28896484 0.29308594 41.26542969 0.15429688 42.27148438 C0.02216797 43.20927734 -0.10996094 44.14707031 -0.24609375 45.11328125 C-0.36654053 45.97735596 -0.4869873 46.84143066 -0.61108398 47.73168945 C-1 50 -1 50 -2 53 C-2.99 52.67 -3.98 52.34 -5 52 C-8.50016957 44.99966086 -4.96952244 34.47504084 -3.5625 27.25 C-1.79880967 18.15983136 -0.50812253 9.25226535 0 0 Z " fill="#EADD20" transform="translate(69,1)"/>
<path d="M0 0 C1.9375 0.375 1.9375 0.375 4 1 C5.7549775 4.509955 5.19053867 8.50846472 5.1875 12.375 C5.18737915 13.80537598 5.18737915 13.80537598 5.18725586 15.26464844 C5.12387308 23.6151634 4.65309179 31.92163657 4.0625 40.25 C3.93234497 42.09730713 3.93234497 42.09730713 3.79956055 43.98193359 C3.13288964 52.73422072 3.13288964 52.73422072 2 55 C1.34 55 0.68 55 0 55 C0 54.34 0 53.68 0 53 C-0.99 52.67 -1.98 52.34 -3 52 C-2.67 47.05 -2.34 42.1 -2 37 C-3.32 37.66 -4.64 38.32 -6 39 C-6.78860649 41.61887976 -7.33036579 43.94921481 -7.75 46.625 C-7.87503906 47.33140625 -8.00007813 48.0378125 -8.12890625 48.765625 C-8.4349525 50.50773442 -8.71955406 52.25358664 -9 54 C-10.32 53.67 -11.64 53.34 -13 53 C-13.85760916 48.39035077 -14.1460094 43.87747594 -14.25 39.1875 C-14.27578125 38.06730469 -14.3015625 36.94710937 -14.328125 35.79296875 C-14.21984375 34.87128906 -14.1115625 33.94960938 -14 33 C-13.01 32.34 -12.02 31.68 -11 31 C-9.89083174 27.77850534 -9.89083174 27.77850534 -9.0625 24 C-7.53323908 17.75601864 -5.60631635 11.89193856 -3 6 C-2.01 6 -1.02 6 0 6 C0 4.02 0 2.04 0 0 Z " fill="#E8A018" transform="translate(57,3)"/>
<path d="M0 0 C0.95648438 -0.01675781 1.91296875 -0.03351563 2.8984375 -0.05078125 C6.04788995 0.36884494 7.41800924 1.04334049 9.625 3.3125 C9.875 7 9.875 7 9.625 10.3125 C6.655 10.3125 3.685 10.3125 0.625 10.3125 C-1.025 13.9425 -2.675 17.5725 -4.375 21.3125 C-2.725 21.3125 -1.075 21.3125 0.625 21.3125 C1.625 22.3125 1.625 22.3125 1.75 25.3125 C1.625 28.3125 1.625 28.3125 0.625 29.3125 C-0.89428038 29.38429964 -2.41667482 29.39642007 -3.9375 29.375 C-4.76378906 29.36597656 -5.59007812 29.35695313 -6.44140625 29.34765625 C-7.39853516 29.33025391 -7.39853516 29.33025391 -8.375 29.3125 C-8.57996094 29.99957031 -8.78492188 30.68664062 -8.99609375 31.39453125 C-9.26550781 32.29558594 -9.53492188 33.19664063 -9.8125 34.125 C-10.07933594 35.01832031 -10.34617188 35.91164062 -10.62109375 36.83203125 C-11.17887873 38.66723055 -11.76844575 40.49283726 -12.375 42.3125 C-7.425 41.8175 -7.425 41.8175 -2.375 41.3125 C-2.0625 44.125 -2.0625 44.125 -2.375 47.3125 C-5.89047772 50.71457522 -9.64740958 50.66341204 -14.2890625 50.7109375 C-16.375 50.3125 -16.375 50.3125 -18.1484375 49.2890625 C-20.12512789 46.10369519 -19.81759503 42.90270327 -19.375 39.3125 C-18.69157595 36.4314384 -17.73404027 33.70496135 -16.6875 30.9375 C-16.41784424 30.19363037 -16.14818848 29.44976074 -15.87036133 28.68334961 C-14.35090456 24.58550189 -12.64829683 20.72335614 -10.5625 16.875 C-8.30993909 12.69269742 -7.75529365 9.06753092 -7.61328125 4.34375 C-7.07068655 -0.28164743 -3.87814359 0.01559575 0 0 Z " fill="#5E5B9F" transform="translate(170.375,73.6875)"/>
<path d="M0 0 C2 2 2 2 2.4375 5.6875 C2.35542992 10.67553682 0.12382292 13.2514125 -3 17 C-4.32 16.34 -5.64 15.68 -7 15 C-6.125 10.25 -6.125 10.25 -5 8 C-7.94545081 9.96363388 -9.7183219 11.30408941 -11.0625 14.625 C-10.99894555 18.0569405 -10.39533945 19.77138813 -9.0625 22.875 C-6.61335433 28.61250908 -5.75517889 32.63286093 -7.953125 38.578125 C-10.14346895 43.31924925 -12.2196743 47.49032901 -17 50 C-19.6875 49.9375 -19.6875 49.9375 -22 49 C-24.45811625 45.31282562 -24.31118164 43.35654296 -24 39 C-23.34 38.01 -22.68 37.02 -22 36 C-21.34 36 -20.68 36 -20 36 C-19.67 36.99 -19.34 37.98 -19 39 C-16.13275314 38.42655063 -15.1385485 38.1385485 -13 36 C-13.23031963 32.08456636 -13.91082903 29.1926093 -15.5625 25.625 C-17.71644273 20.19331834 -18.0411023 15.8465059 -16.015625 10.30859375 C-12.14153571 2.09408962 -9.15920404 -0.73864549 0 0 Z " fill="#625B9F" transform="translate(157,9)"/>
<path d="M0 0 C3.875 1.875 3.875 1.875 5 3 C4.79385263 11.04596297 2.94982755 19.01487373 1.37304688 26.87695312 C0.25747078 32.70001514 -0.18815411 38.07011081 0 44 C0.763125 43.505 1.52625 43.01 2.3125 42.5 C5 41 5 41 8 41 C8.4375 44.125 8.4375 44.125 8 48 C5.48311413 50.98591185 2.48707567 53.25646216 -1 55 C-3.3329866 55.04022391 -5.66706666 55.04320247 -8 55 C-8.75678107 36.75316752 -5.63381877 18.61686056 -1 1 C-0.67 0.67 -0.34 0.34 0 0 Z " fill="#E33526" transform="translate(8,73)"/>
<path d="M0 0 C0 2.31 0 4.62 0 7 C2.64 7.66 5.28 8.32 8 9 C7.49607061 13.40938215 6.0379639 15.78843816 3 19 C0.75 20.3125 0.75 20.3125 -1 21 C-1 19.68 -1 18.36 -1 17 C-1.99 17 -2.98 17 -4 17 C-3.89300781 17.90621094 -3.78601563 18.81242187 -3.67578125 19.74609375 C-3.02870379 26.32123563 -2.63190526 31.54685954 -5.1640625 37.69140625 C-6.82466604 42.27746556 -7.30796714 47.18833625 -8 52 C-9.485 52.495 -9.485 52.495 -11 53 C-11.99 52.34 -12.98 51.68 -14 51 C-14.49655202 45.10586298 -13.54703255 39.84361033 -12.1875 34.125 C-12.00735352 33.33270996 -11.82720703 32.54041992 -11.64160156 31.72412109 C-10.68939002 27.61612884 -9.60586912 23.62124582 -8.25 19.625 C-6.70623319 14.9033728 -6.87940259 10.48954613 -7.1875 5.56640625 C-7 3 -7 3 -5.75 1.15234375 C-4 0 -4 0 0 0 Z " fill="#E9DE21" transform="translate(80,66)"/>
<path d="M0 0 C0.33 0 0.66 0 1 0 C1 3.96 1 7.92 1 12 C2.32 9.69 3.64 7.38 5 5 C6.53760842 8.07521683 5.36599236 10.34675118 4.5625 13.625 C4.27503906 14.81351563 3.98757812 16.00203125 3.69140625 17.2265625 C3.46324219 18.14179687 3.23507813 19.05703125 3 20 C2.01 20 1.02 20 0 20 C0 21.98 0 23.96 0 26 C0.66 26 1.32 26 2 26 C2 27.65 2 29.3 2 31 C1.67 29.68 1.34 28.36 1 27 C-1.44409541 27.07711969 -1.44409541 27.07711969 -4 28 C-5.44452838 30.4162924 -5.44452838 30.4162924 -6.25 33.375 C-6.56453125 34.35210937 -6.8790625 35.32921875 -7.203125 36.3359375 C-7.59757812 37.65464844 -7.59757812 37.65464844 -8 39 C-8.33 39.99 -8.66 40.98 -9 42 C-11.86724686 41.42655063 -12.8614515 41.1385485 -15 39 C-15.17449217 35.98503018 -14.71359114 32.99629971 -14.375 30 C-14.30410156 29.16726562 -14.23320313 28.33453125 -14.16015625 27.4765625 C-14.07378906 26.67992188 -13.98742187 25.88328125 -13.8984375 25.0625 C-13.78508057 23.96615234 -13.78508057 23.96615234 -13.66943359 22.84765625 C-12.74592358 20.29874168 -11.38202125 20.15958774 -9 19 C-7.64421142 17.02029907 -7.64421142 17.02029907 -6.640625 14.6484375 C-6.24746094 13.79765625 -5.85429688 12.946875 -5.44921875 12.0703125 C-4.85560547 10.73613281 -4.85560547 10.73613281 -4.25 9.375 C-3.63318359 8.02921875 -3.63318359 8.02921875 -3.00390625 6.65625 C-1.99118402 4.44239209 -0.99049937 2.22386766 0 0 Z " fill="#8BBB1C" transform="translate(105,76)"/>
<path d="M0 0 C3.69230769 0.69230769 3.69230769 0.69230769 5 2 C5.42396747 6.90486501 4.22858287 10.6104896 2.375 15.0625 C-0.91312131 23.34611246 -3.33319324 31.79895561 -5.703125 40.3828125 C-6.69216357 43.96336417 -7.78009782 47.48990411 -9 51 C-12.875 50.125 -12.875 50.125 -14 49 C-14.44042948 42.5814744 -13.24009844 37.55424098 -11.19140625 31.50390625 C-10.90522934 30.62975571 -10.61905243 29.75560516 -10.32420349 28.85496521 C-9.72186839 27.02202148 -9.11395452 25.19090246 -8.50073242 23.36157227 C-7.55835929 20.55014684 -6.6322404 17.7337705 -5.70898438 14.91601562 C-5.12071599 13.13250736 -4.53155525 11.34929312 -3.94140625 9.56640625 C-3.6622084 8.7217128 -3.38301056 7.87701935 -3.09535217 7.00672913 C-1.11819826 1.11819826 -1.11819826 1.11819826 0 0 Z " fill="#468F7D" transform="translate(129,68)"/>
<path d="M0 0 C0.66 0 1.32 0 2 0 C2.33 1.65 2.66 3.3 3 5 C4.32 5.33 5.64 5.66 7 6 C7.05455703 8.97941998 7.09393851 11.95781531 7.125 14.9375 C7.15013672 16.18370117 7.15013672 16.18370117 7.17578125 17.45507812 C7.24295414 26.08679417 5.49626699 33.46212982 2.125 41.375 C1.63257812 42.55835938 1.14015625 43.74171875 0.6328125 44.9609375 C-0.97164138 47.94721768 -2.13513996 49.27612318 -5 51 C-5.57292013 44.64695232 -5.14097831 39.71508841 -2.625 33.8125 C0.55198521 26.34253477 1.31118005 19.008817 2 11 C1.34 11 0.68 11 0 11 C-0.309375 11.94875 -0.61875 12.8975 -0.9375 13.875 C-2 17 -2 17 -3 19 C-3.66 19 -4.32 19 -5 19 C-5.25994139 12.50146534 -5.07980535 7.29302514 -1.5 1.625 C-1.005 1.08875 -0.51 0.5525 0 0 Z " fill="#598B8F" transform="translate(119,2)"/>
<path d="M0 0 C0.50808698 8.24229984 -0.36297434 15.2232126 -2.56835938 23.08984375 C-4.18865819 29.10308269 -4.42405927 34.78046405 -4 41 C-2.68 41.33 -1.36 41.66 0 42 C0 44.64 0 47.28 0 50 C-2.475 50.495 -2.475 50.495 -5 51 C-11.55714061 43.56857398 -11.71378785 35.65521756 -11.20410156 26.14892578 C-10.36883762 17.35467553 -7.53603711 8.56006185 -3 1 C-1 0 -1 0 0 0 Z " fill="#E45E2E" transform="translate(30,73)"/>
<path d="M0 0 C0.95648438 -0.01675781 1.91296875 -0.03351563 2.8984375 -0.05078125 C6.04788995 0.36884494 7.41800924 1.04334049 9.625 3.3125 C9.875 7 9.875 7 9.625 10.3125 C6.655 10.3125 3.685 10.3125 0.625 10.3125 C-1.025 13.9425 -2.675 17.5725 -4.375 21.3125 C-2.725 21.3125 -1.075 21.3125 0.625 21.3125 C1.625 22.3125 1.625 22.3125 1.6875 25.375 C1.666875 26.344375 1.64625 27.31375 1.625 28.3125 C-1.74041838 29.39424162 -2.67347322 29.23788169 -6.375 28.3125 C-6.375 23.3625 -6.375 18.4125 -6.375 13.3125 C-7.035 12.9825 -7.695 12.6525 -8.375 12.3125 C-8.26101335 10.68669034 -8.13344341 9.06182843 -8 7.4375 C-7.93039063 6.53257813 -7.86078125 5.62765625 -7.7890625 4.6953125 C-6.95296871 -0.11617061 -4.27931302 0.01720903 0 0 Z " fill="#6E569C" transform="translate(170.375,73.6875)"/>
<path d="M0 0 C7 0 7 0 9.9375 2.375 C12.45696908 5.91226785 12.64824313 9.20553077 12.4296875 13.4609375 C11.7639454 17.39486811 10.36095374 20.77836412 8 24 C7.01 24.66 6.02 25.32 5 26 C5 23.03 5 20.06 5 17 C1.535 19.475 1.535 19.475 -2 22 C-1.34 14.74 -0.68 7.48 0 0 Z " fill="#EBCA20" transform="translate(55,67)"/>
<path d="M0 0 C0.99 0 1.98 0 3 0 C3.65480673 17.35993391 3.5495168 36.3514496 -2 53 C-2.99 52.67 -3.98 52.34 -5 52 C-8.50016957 44.99966086 -4.96952244 34.47504084 -3.5625 27.25 C-1.79880967 18.15983136 -0.50812253 9.25226535 0 0 Z " fill="#EBCA24" transform="translate(69,1)"/>
<path d="M0 0 C0.33 0 0.66 0 1 0 C1 3.96 1 7.92 1 12 C1.66 12.33 2.32 12.66 3 13 C-1 27 -1 27 -5 41 C-5.99 41 -6.98 41 -8 41 C-10.50366458 37.24450313 -10.30910011 35.46320955 -10 31 C-9.35345239 28.43599165 -8.66132655 26.02631758 -7.8125 23.53515625 C-7.59053955 22.85698349 -7.3685791 22.17881073 -7.13989258 21.48008728 C-6.43622613 19.33756826 -5.71840496 17.20011637 -5 15.0625 C-4.51728166 13.60122412 -4.03550152 12.13963796 -3.5546875 10.67773438 C-2.3806049 7.11481153 -1.19381353 3.5563578 0 0 Z " fill="#4C819C" transform="translate(137,79)"/>
<path d="M0 0 C0.99 0.33 1.98 0.66 3 1 C3.48324254 8.08755721 2.9115403 14.51707998 1.1875 21.375 C1.02217773 22.04015625 0.85685547 22.7053125 0.68652344 23.390625 C-0.421703 27.54803944 -1.95749296 31.21931361 -4 35 C-4.99 34.67 -5.98 34.34 -7 34 C-7.48324254 26.91244279 -6.9115403 20.48292002 -5.1875 13.625 C-5.02217773 12.95984375 -4.85685547 12.2946875 -4.68652344 11.609375 C-3.578297 7.45196056 -2.04250704 3.78068639 0 0 Z " fill="#FAF2EE" transform="translate(32,80)"/>
<path d="M0 0 C3.53508103 0.29459009 4.76203444 0.74881413 7.25 3.375 C11.07492256 9.11238384 10.62216399 15.33878769 10 22 C9.36265767 24.96955808 8.53598796 27.8536843 7.625 30.75 C7.29314697 31.80513794 7.29314697 31.80513794 6.95458984 32.8815918 C5.27921513 37.86039243 5.27921513 37.86039243 3 39 C2.97296438 36.41659616 2.95314389 33.83347692 2.9375 31.25 C2.92493164 30.15558594 2.92493164 30.15558594 2.91210938 29.0390625 C2.89604231 25.50430711 3.08163817 22.40067094 4 19 C4.33025172 16.17932547 4.22906241 13.88618642 4 11 C3.34 10.505 2.68 10.01 2 9.5 C1.34 9.005 0.68 8.51 0 8 C-0.37469677 5.25038694 -0.18303992 2.79135883 0 0 Z " fill="#8BBB2C" transform="translate(96,1)"/>
<path d="M0 0 C0.33 0 0.66 0 1 0 C1.0582462 3.72910066 1.09367917 7.45808364 1.125 11.1875 C1.14175781 12.24259766 1.15851562 13.29769531 1.17578125 14.38476562 C1.18222656 15.40634766 1.18867187 16.42792969 1.1953125 17.48046875 C1.20578613 18.41785889 1.21625977 19.35524902 1.22705078 20.32104492 C0.98025922 23.23291998 0.17068765 25.33813227 -1 28 C-1.42148875 29.92792077 -1.79676438 31.8665317 -2.125 33.8125 C-2.29257812 34.78832031 -2.46015625 35.76414063 -2.6328125 36.76953125 C-2.75398438 37.50558594 -2.87515625 38.24164063 -3 39 C-4.32 38.67 -5.64 38.34 -7 38 C-7.85760916 33.39035077 -8.1460094 28.87747594 -8.25 24.1875 C-8.27578125 23.06730469 -8.3015625 21.94710937 -8.328125 20.79296875 C-8.21984375 19.87128906 -8.1115625 18.94960938 -8 18 C-7.01 17.34 -6.02 16.68 -5 16 C-4.16374306 13.4595091 -3.47716662 11.03163379 -2.875 8.4375 C-1.0998782 1.0998782 -1.0998782 1.0998782 0 0 Z " fill="#EB7625" transform="translate(51,18)"/>
<path d="M0 0 C0.66 0 1.32 0 2 0 C2.0248905 5.79833674 2.04294954 11.59664172 2.05493164 17.39501953 C2.05993176 19.36377505 2.06673402 21.33252691 2.07543945 23.30126953 C2.08769573 26.14616809 2.09327167 28.99101717 2.09765625 31.8359375 C2.10281754 32.70302338 2.10797882 33.57010925 2.11329651 34.46347046 C2.113827 40.3639927 1.68934355 46.14065307 1 52 C-0.32 52 -1.64 52 -3 52 C-6.41708289 45.16583421 -3.54179569 34.4512942 -2.5 27.1875 C-1.40680269 19.14273689 -0.69886547 11.4414265 -0.9921875 3.31640625 C-0.99476562 2.55199219 -0.99734375 1.78757812 -1 1 C-0.67 0.67 -0.34 0.34 0 0 Z " fill="#E43B2A" transform="translate(27,9)"/>
<path d="M0 0 C0.05395478 1.62463842 0.09277195 3.24978541 0.125 4.875 C0.14820313 5.77992187 0.17140625 6.68484375 0.1953125 7.6171875 C0 10 0 10 -2 12 C-1.68682029 18.82972671 0.66049136 25.30829793 3.1953125 31.58984375 C4 34 4 34 4 38 C2.35 38.66 0.7 39.32 -1 40 C-6.17455759 32.23816362 -6.3640448 24.88887933 -6.375 15.8125 C-6.39949219 14.73291016 -6.42398438 13.65332031 -6.44921875 12.54101562 C-6.45308594 11.50267578 -6.45695312 10.46433594 -6.4609375 9.39453125 C-6.46915527 8.45456299 -6.47737305 7.51459473 -6.48583984 6.54614258 C-5.80690304 2.98803609 -3.88156732 0 0 0 Z " fill="#EAB920" transform="translate(60,84)"/>
<path d="M0 0 C4.13998349 -0.32470459 6.33999001 -0.4304413 9.875 1.875 C12.80059011 4.80059011 13.21064532 6.52316756 13.375 10.5625 C13.35809061 16.37087566 11.19642338 20.27385972 8 25 C6.68 25 5.36 25 4 25 C3.59090909 16.81818182 3.59090909 16.81818182 7 13 C7.33 11.68 7.66 10.36 8 9 C5.36 8.34 2.72 7.68 0 7 C0 4.69 0 2.38 0 0 Z " fill="#B8CC17" transform="translate(80,66)"/>
<path d="M0 0 C0.33 0 0.66 0 1 0 C1.05906119 3.60409539 1.09394639 7.20806309 1.125 10.8125 C1.14175781 11.81732422 1.15851562 12.82214844 1.17578125 13.85742188 C1.22036024 20.78945544 0.48266066 27.22940584 -1 34 C-3.4375 33.625 -3.4375 33.625 -6 33 C-9.02970425 26.94059149 -6.07098578 18.87355716 -4.625 12.6875 C-4.40328125 11.68654297 -4.1815625 10.68558594 -3.953125 9.65429688 C-2.25426572 2.25426572 -2.25426572 2.25426572 0 0 Z " fill="#E5942A" transform="translate(48,87)"/>
<path d="M0 0 C0.66 0 1.32 0 2 0 C2.90483433 12.54200921 -1.01083502 23.12622915 -7 34 C-7.33 34 -7.66 34 -8 34 C-8.60700546 21.32033033 -6.19867833 11.07431859 0 0 Z " fill="#F4F8F6" transform="translate(119,13)"/>
<path d="M0 0 C2 2 2 2 2.4375 5.6875 C2.35542992 10.67553682 0.12382292 13.2514125 -3 17 C-4.32 16.34 -5.64 15.68 -7 15 C-6.125 10.25 -6.125 10.25 -5 8 C-7.475 9.485 -7.475 9.485 -10 11 C-10.33 9.35 -10.66 7.7 -11 6 C-11.99 6.66 -12.98 7.32 -14 8 C-13.12269491 5.29497597 -12.28331029 3.31599994 -10.375 1.1875 C-6.75925088 -0.62037456 -4.02440798 -0.32454903 0 0 Z " fill="#6E569B" transform="translate(157,9)"/>
<path d="M0 0 C1.32 0 2.64 0 4 0 C4 2.31 4 4.62 4 7 C6.64 7.66 9.28 8.32 12 9 C11.49607061 13.40938215 10.0379639 15.78843816 7 19 C4.75 20.3125 4.75 20.3125 3 21 C3 19.68 3 18.36 3 17 C2.01 17 1.02 17 0 17 C0 11.39 0 5.78 0 0 Z " fill="#D5D91E" transform="translate(76,66)"/>
<path d="M0 0 C1.32 0.66 2.64 1.32 4 2 C4.85210328 12.86431681 0.72079621 22.92644207 -5 32 C-5.66 32 -6.32 32 -7 32 C-5.93069786 26.42704884 -4.75165227 20.8957279 -3.4375 15.375 C-2.56539165 11.6674439 -1.8023475 8.03507782 -1.375 4.25 C-1 1 -1 1 0 0 Z " fill="#F6F9EA" transform="translate(97,10)"/>
<path d="M0 0 C0.33 0 0.66 0 1 0 C1.90095556 8.59244653 1.90095556 8.59244653 -0.16015625 11.8125 C-2.6196974 14.02671608 -4.43276378 15 -7.75 15 C-10 14 -10 14 -12 11 C-12.4516129 4.67741935 -12.4516129 4.67741935 -10 1 C-9.34 1 -8.68 1 -8 1 C-7.67 1.99 -7.34 2.98 -7 4 C-3.70063868 3.4311446 -2.23975684 2.45306702 0 0 Z " fill="#5D62A3" transform="translate(145,44)"/>
<path d="M0 0 C0.33 0 0.66 0 1 0 C1 3.96 1 7.92 1 12 C2.32 9.69 3.64 7.38 5 5 C6.53760842 8.07521683 5.36599236 10.34675118 4.5625 13.625 C4.13130859 15.40777344 4.13130859 15.40777344 3.69140625 17.2265625 C3.46324219 18.14179687 3.23507813 19.05703125 3 20 C2.01 20 1.02 20 0 20 C0 21.98 0 23.96 0 26 C0.66 26 1.32 26 2 26 C2 27.65 2 29.3 2 31 C1.67 29.68 1.34 28.36 1 27 C-0.32 27 -1.64 27 -3 27 C-3 22.05 -3 17.1 -3 12 C-3.66 12 -4.32 12 -5 12 C-3.68938409 7.76570244 -2.05643741 3.92592596 0 0 Z " fill="#75B437" transform="translate(105,76)"/>
<path d="M0 0 C0.33 0 0.66 0 1 0 C1.22630724 4.39510126 1.42790777 8.7909994 1.625 13.1875 C1.68945312 14.43337891 1.75390625 15.67925781 1.8203125 16.96289062 C1.871875 18.16494141 1.9234375 19.36699219 1.9765625 20.60546875 C2.02893066 21.71043701 2.08129883 22.81540527 2.13525391 23.95385742 C1.99623333 27.08483171 1.34010352 29.18944159 0 32 C-1.65 31.01 -3.3 30.02 -5 29 C-4.48517081 23.147205 -3.54642808 17.6702363 -2 12 C-2.66 12 -3.32 12 -4 12 C-4 10.02 -4 8.04 -4 6 C-3.01 6 -2.02 6 -1 6 C-0.67 4.02 -0.34 2.04 0 0 Z " fill="#56A935" transform="translate(109,90)"/>
<path d="M0 0 C0.33 0 0.66 0 1 0 C1.10371911 9.72654773 1.04518445 19.31337984 0 29 C-1.65 29.33 -3.3 29.66 -5 30 C-5.25086966 27.31297439 -5.47611241 24.62768528 -5.6875 21.9375 C-5.76033203 21.18533203 -5.83316406 20.43316406 -5.90820312 19.65820312 C-6.30784819 14.22773197 -5.50205464 10.84330886 -3 6 C-2.01 6 -1.02 6 0 6 C0 4.02 0 2.04 0 0 Z " fill="#ED9521" transform="translate(57,3)"/>
<path d="M0 0 C0.99 0 1.98 0 3 0 C3.33 0.99 3.66 1.98 4 3 C4.66 2.67 5.32 2.34 6 2 C5.67 11.24 5.34 20.48 5 30 C4.34 30 3.68 30 3 30 C0.96022967 19.86185582 -0.48741178 10.38006571 0 0 Z " fill="#D4D81B" transform="translate(76,83)"/>
<path d="M0 0 C0.66 0 1.32 0 2 0 C2.12375 0.804375 2.2475 1.60875 2.375 2.4375 C2.684375 3.7059375 2.684375 3.7059375 3 5 C3.66 5.33 4.32 5.66 5 6 C4.67 6.99 4.34 7.98 4 9 C3.77548542 11.22574335 3.59217122 13.45581519 3.4375 15.6875 C3.35371094 16.86699219 3.26992187 18.04648437 3.18359375 19.26171875 C3.12300781 20.16535156 3.06242187 21.06898437 3 22 C2.67 22 2.34 22 2 22 C2 18.37 2 14.74 2 11 C1.34 11 0.68 11 0 11 C-0.309375 11.94875 -0.61875 12.8975 -0.9375 13.875 C-2 17 -2 17 -3 19 C-3.66 19 -4.32 19 -5 19 C-5.25994139 12.50146534 -5.07980535 7.29302514 -1.5 1.625 C-1.005 1.08875 -0.51 0.5525 0 0 Z " fill="#5E8E91" transform="translate(119,2)"/>
<path d="M0 0 C0.4375 3.125 0.4375 3.125 0 7 C-2.51688587 9.98591185 -5.51292433 12.25646216 -9 14 C-11.3329866 14.04022391 -13.66706666 14.04320247 -16 14 C-16 12.02 -16 10.04 -16 8 C-15.566875 8.639375 -15.13375 9.27875 -14.6875 9.9375 C-13.08760823 12.26746003 -13.08760823 12.26746003 -10 13 C-10 9.04 -10 5.08 -10 1 C-9.34 1.66 -8.68 2.32 -8 3 C-7.236875 2.505 -6.47375 2.01 -5.6875 1.5 C-3 0 -3 0 0 0 Z " fill="#E24E2D" transform="translate(16,114)"/>
<path d="M0 0 C0.33 0 0.66 0 1 0 C1.2276125 3.20726702 1.42860225 6.4156823 1.625 9.625 C1.68945312 10.52863281 1.75390625 11.43226562 1.8203125 12.36328125 C2.11417457 17.39566926 2.05774314 21.27190317 0 26 C-3.875 25.125 -3.875 25.125 -5 24 C-5.37526479 17.94215403 -4.45489318 13.20617468 -2.5 7.5 C-2.26152344 6.77296875 -2.02304688 6.0459375 -1.77734375 5.296875 C-1.19539824 3.52776065 -0.59919543 1.76334654 0 0 Z " fill="#599C77" transform="translate(120,93)"/>
<path d="M0 0 C3.875 0.875 3.875 0.875 5 2 C5.53182455 7.40134308 3.97083795 11.46566042 2 16.375 C1.71382812 17.11105469 1.42765625 17.84710938 1.1328125 18.60546875 C0.43085139 20.40716893 -0.28334405 22.20409432 -1 24 C-1.33 24 -1.66 24 -2 24 C-2.25086966 21.31297439 -2.47611241 18.62768528 -2.6875 15.9375 C-2.79674805 14.80924805 -2.79674805 14.80924805 -2.90820312 13.65820312 C-3.30784819 8.22773197 -2.50205464 4.84330886 0 0 Z " fill="#44878E" transform="translate(129,68)"/>
<path d="M0 0 C1.96580786 1.6245488 2.9139571 2.5030728 3.35644531 5.05859375 C3.34709961 5.84363281 3.33775391 6.62867188 3.328125 7.4375 C3.32361328 8.32421387 3.31910156 9.21092773 3.31445312 10.12451172 C3.29318359 11.07342285 3.27191406 12.02233398 3.25 13 C3.23904297 13.9708252 3.22808594 14.94165039 3.21679688 15.94189453 C3.07671779 25.3073992 2.60434652 34.65421279 2 44 C1.67 44 1.34 44 1 44 C-0.02043496 34.4053804 -0.11986328 24.88270104 -0.0625 15.25 C-0.05746985 13.76302236 -0.05290965 12.27604305 -0.04882812 10.7890625 C-0.03795432 7.19267294 -0.0207752 3.59634763 0 0 Z " fill="#EAAF32" transform="translate(59,3)"/>
<path d="M0 0 C2.16367464 1.69331059 2.95343602 2.84478674 3.75 5.5 C4.09308365 10.30317114 2.8862947 14.28492334 1.5625 18.875 C1.31951172 19.75414063 1.07652344 20.63328125 0.82617188 21.5390625 C0.2283219 23.69601143 -0.38060595 25.84915815 -1 28 C-1.33 28 -1.66 28 -2 28 C-2.05841253 24.45840343 -2.09373452 20.91693207 -2.125 17.375 C-2.14175781 16.37597656 -2.15851563 15.37695312 -2.17578125 14.34765625 C-2.21014246 9.15911291 -2.10254937 4.85076351 0 0 Z " fill="#D6DA25" transform="translate(83,1)"/>
<path d="M0 0 C0.33 0 0.66 0 1 0 C1 1.65 1 3.3 1 5 C-0.98 5.99 -0.98 5.99 -3 7 C-3 12.28 -3 17.56 -3 23 C-2.34 23 -1.68 23 -1 23 C-1.33 24.65 -1.66 26.3 -2 28 C-4.86724686 27.42655063 -5.8614515 27.1385485 -8 25 C-8.17449217 21.98503018 -7.71359114 18.99629971 -7.375 16 C-7.30410156 15.16726562 -7.23320313 14.33453125 -7.16015625 13.4765625 C-7.07378906 12.67992188 -6.98742187 11.88328125 -6.8984375 11.0625 C-6.82286621 10.33160156 -6.74729492 9.60070312 -6.66943359 8.84765625 C-6 7 -6 7 -4.02197266 5.91015625 C-3.35472168 5.60980469 -2.6874707 5.30945313 -2 5 C-0.71745356 2.46229997 -0.71745356 2.46229997 0 0 Z " fill="#A1C320" transform="translate(98,90)"/>
<path d="M0 0 C1.16253802 6.65817228 0.85596371 12.34047569 -0.3125 18.9375 C-0.44245361 19.68314209 -0.57240723 20.42878418 -0.70629883 21.19702148 C-1.3700797 24.69192534 -2.00354838 27.00532257 -4 30 C-4.08690253 25.56262288 -4.14035926 21.12546366 -4.1875 16.6875 C-4.21263672 15.42486328 -4.23777344 14.16222656 -4.26367188 12.86132812 C-4.27333984 11.65283203 -4.28300781 10.44433594 -4.29296875 9.19921875 C-4.31653442 7.52605591 -4.31653442 7.52605591 -4.34057617 5.8190918 C-4 3 -4 3 -2.54418945 1.11254883 C-1 -0 -1 -0 0 0 Z " fill="#ABC71B" transform="translate(96,1)"/>
<path d="M0 0 C0.33 0 0.66 0 1 0 C2.47155406 8.53501358 2.43085035 13.96673428 -2.45703125 21.26953125 C-2.96621094 21.84058594 -3.47539063 22.41164063 -4 23 C-4.66 23 -5.32 23 -6 23 C-7.08460346 14.10223461 -4.09747202 7.7803189 0 0 Z " fill="#ACC820" transform="translate(98,28)"/>
<path d="M0 0 C0.66 0.33 1.32 0.66 2 1 C2.05410136 4.06273831 2.09372225 7.12451452 2.125 10.1875 C2.14175781 11.05181641 2.15851563 11.91613281 2.17578125 12.80664062 C2.21038233 17.32208103 2.15567916 20.90081483 0 25 C-0.33 25 -0.66 25 -1 25 C-3.92018026 6.38385085 -3.92018026 6.38385085 0 0 Z " fill="#4B7C95" transform="translate(124,7)"/>
<path d="M0 0 C0.33 0 0.66 0 1 0 C1 8.25 1 16.5 1 25 C0.01 24.67 -0.98 24.34 -2 24 C-5.53764303 16.92471394 -1.85044612 7.12642046 0 0 Z " fill="#EABD2A" transform="translate(66,29)"/>
<path d="M0 0 C0.33 0 0.66 0 1 0 C1 5.61 1 11.22 1 17 C0.01 17 -0.98 17 -2 17 C-4.49455917 13.25816125 -4.37606522 11.43756964 -4 7 C-1.77419355 1.77419355 -1.77419355 1.77419355 0 0 Z " fill="#43888C" transform="translate(131,103)"/>
<path d="M0 0 C1.32 0.66 2.64 1.32 4 2 C4.45374191 7.67177385 3.65083143 10.5975268 0 15 C-0.66 15 -1.32 15 -2 15 C-2.05406122 13.06280622 -2.09282025 11.12518079 -2.125 9.1875 C-2.14820313 8.10855469 -2.17140625 7.02960937 -2.1953125 5.91796875 C-2 3 -2 3 0 0 Z " fill="#5C64A5" transform="translate(137,5)"/>
<path d="M0 0 C0.66 1.32 1.32 2.64 2 4 C2.804375 3.979375 3.60875 3.95875 4.4375 3.9375 C7 4 7 4 8 5 C8.04080783 6.99958364 8.04254356 9.00045254 8 11 C4.63458162 12.08174162 3.70152678 11.92538169 0 11 C0 7.37 0 3.74 0 0 Z " fill="#684F97" transform="translate(164,91)"/>
<path d="M0 0 C0.33 0 0.66 0 1 0 C1 7.59 1 15.18 1 23 C0.34 23 -0.32 23 -1 23 C-1 22.01 -1 21.02 -1 20 C-2.32 20 -3.64 20 -5 20 C-5 17.69 -5 15.38 -5 13 C-3.35 12.67 -1.7 12.34 0 12 C0 8.04 0 4.08 0 0 Z " fill="#ED9218" transform="translate(57,20)"/>
<path d="M0 0 C2.87600139 8.62800418 0.47671619 17.55262872 -2 26 C-2.33 26 -2.66 26 -3 26 C-3.06058594 25.01257813 -3.12117188 24.02515625 -3.18359375 23.0078125 C-3.26738281 21.72648437 -3.35117188 20.44515625 -3.4375 19.125 C-3.51871094 17.84882813 -3.59992188 16.57265625 -3.68359375 15.2578125 C-3.79206027 12.11699848 -3.79206027 12.11699848 -5 10 C-4.00390625 7.6171875 -4.00390625 7.6171875 -2.5625 4.875 C-1.85287109 3.50988281 -1.85287109 3.50988281 -1.12890625 2.1171875 C-0.75636719 1.41851562 -0.38382812 0.71984375 0 0 Z " fill="#6BA269" transform="translate(114,9)"/>
<path d="M0 0 C1.4540625 0.0309375 1.4540625 0.0309375 2.9375 0.0625 C2.41868887 4.2349106 1.22598726 6.31666821 -1.625 9.375 C-2.26566406 10.07238281 -2.90632813 10.76976563 -3.56640625 11.48828125 C-4.06011719 12.00777344 -4.55382813 12.52726562 -5.0625 13.0625 C-6.15078929 9.79763213 -5.96151381 8.69259917 -5.1875 5.4375 C-5.00445312 4.64085938 -4.82140625 3.84421875 -4.6328125 3.0234375 C-3.70708603 -0.15953981 -3.49718465 0.07137112 0 0 Z " fill="#FAF7E7" transform="translate(59.0625,75.9375)"/>
<path d="M0 0 C1.98 0 3.96 0 6 0 C5.49607061 4.40938215 4.0379639 6.78843816 1 10 C-1.25 11.3125 -1.25 11.3125 -3 12 C-2.14285714 3.42857143 -2.14285714 3.42857143 0 0 Z " fill="#F8F8E5" transform="translate(82,75)"/>
<path d="M0 0 C2.375 0.3125 2.375 0.3125 5 1 C7.42945561 4.64418341 7.0828781 5.92923364 6.625 10.1875 C6.51414062 11.27417969 6.40328125 12.36085938 6.2890625 13.48046875 C6.19367188 14.31191406 6.09828125 15.14335937 6 16 C5.67 16 5.34 16 5 16 C4.731875 15.05125 4.46375 14.1025 4.1875 13.125 C3.25013412 9.74732727 3.25013412 9.74732727 0 8 C-0.40843923 5.28796348 -0.13336867 2.7562858 0 0 Z " fill="#8ABA1C" transform="translate(96,1)"/>
<path d="M0 0 C0.33 0 0.66 0 1 0 C1 1.98 1 3.96 1 6 C0.34 6 -0.32 6 -1 6 C-0.95359375 6.56847656 -0.9071875 7.13695313 -0.859375 7.72265625 C-0.57650029 13.7741545 -1.59410766 16.99759562 -5 22 C-5.98235258 18.81658676 -6.02156168 16.24321485 -5.6875 12.9375 C-5.60886719 12.08027344 -5.53023438 11.22304687 -5.44921875 10.33984375 C-5 8 -5 8 -3 5 C-2.01 5 -1.02 5 0 5 C0 3.35 0 1.7 0 0 Z " fill="#5CAC40" transform="translate(111,67)"/>
<path d="M0 0 C3 1 3 1 4 3 C4.43500582 7.72650557 4.56444891 11.77293715 2.5625 16.125 C2.046875 16.74375 1.53125 17.3625 1 18 C0.67 18 0.34 18 0 18 C0 12.06 0 6.12 0 0 Z " fill="#A8C51A" transform="translate(89,69)"/>
<path d="M0 0 C0.33 0.99 0.66 1.98 1 3 C1.66 3 2.32 3 3 3 C3.33 5.64 3.66 8.28 4 11 C4.33 11 4.66 11 5 11 C4.67 13.31 4.34 15.62 4 18 C3.34 18 2.68 18 2 18 C2 17.34 2 16.68 2 16 C1.01 15.67 0.02 15.34 -1 15 C-0.67 10.05 -0.34 5.1 0 0 Z " fill="#EEA132" transform="translate(55,40)"/>
<path d="M0 0 C0.66 0 1.32 0 2 0 C4.71853563 5.43707127 3.67197884 14.6238671 2 20.375 C1.67 21.24125 1.34 22.1075 1 23 C0.67 23 0.34 23 0 23 C0 15.41 0 7.82 0 0 Z " fill="#7AB420" transform="translate(102,5)"/>
<path d="M0 0 C0.33 0.99 0.66 1.98 1 3 C1.99 3 2.98 3 4 3 C4.29296875 9.0546875 4.29296875 9.0546875 4 11 C0.3558226 13.4294516 -1.71241272 13.16179575 -6 13 C-6 11.02 -6 9.04 -6 7 C-5.3503125 7.9590625 -5.3503125 7.9590625 -4.6875 8.9375 C-3.08760823 11.26746003 -3.08760823 11.26746003 0 12 C0 8.04 0 4.08 0 0 Z " fill="#E86857" transform="translate(6,115)"/>
<path d="M0 0 C0.33 0 0.66 0 1 0 C1.07347656 1.06541016 1.07347656 1.06541016 1.1484375 2.15234375 C1.22320312 3.07144531 1.29796875 3.99054688 1.375 4.9375 C1.44460937 5.85402344 1.51421875 6.77054687 1.5859375 7.71484375 C1.72257812 8.46894531 1.85921875 9.22304687 2 10 C2.66 10.33 3.32 10.66 4 11 C3.34 15.29 2.68 19.58 2 24 C1.67 22.68 1.34 21.36 1 20 C0.34 20 -0.32 20 -1 20 C-0.67 13.4 -0.34 6.8 0 0 Z " fill="#F5E4D3" transform="translate(41,83)"/>
<path d="M0 0 C1.65 0 3.3 0 5 0 C6.35439668 2.70879335 6.06501451 5.00933268 6 8 C4.02 8.66 2.04 9.32 0 10 C0 6.7 0 3.4 0 0 Z " fill="#E9B91B" transform="translate(55,67)"/>
<path d="M0 0 C0.99 0 1.98 0 3 0 C4.0024305 5.34629602 3.84888195 9.62374766 3 15 C2.01 15.33 1.02 15.66 0 16 C0 10.72 0 5.44 0 0 Z " fill="#78B320" transform="translate(99,88)"/>
<path d="M0 0 C1.32 0 2.64 0 4 0 C3.73781251 4.4571874 3.42288711 6.51522698 0.4375 9.9375 C-0.366875 10.618125 -1.17125 11.29875 -2 12 C-2.28571429 3.42857143 -2.28571429 3.42857143 0 0 Z " fill="#F9F1EC" transform="translate(34,15)"/>
<path d="M0 0 C0.66 0 1.32 0 2 0 C2.05429959 1.74965358 2.09292823 3.49979787 2.125 5.25 C2.14820312 6.22453125 2.17140625 7.1990625 2.1953125 8.203125 C1.99862781 11.0196498 1.44568916 12.60949036 0 15 C-0.66 15 -1.32 15 -2 15 C-2.21755666 9.5610835 -2.10428384 5.12919186 0 0 Z " fill="#579675" transform="translate(116,6)"/>
<path d="M0 0 C0 4.62 0 9.24 0 14 C-1.32 13.34 -2.64 12.68 -4 12 C-4.368 4.64 -4.368 4.64 -2.5625 1.5 C-1 0 -1 0 0 0 Z " fill="#4E9E5C" transform="translate(119,105)"/>
<path d="M0 0 C0.33 0 0.66 0 1 0 C1.25034126 2.0600371 1.47443346 4.12327466 1.6875 6.1875 C1.81511719 7.33605469 1.94273438 8.48460937 2.07421875 9.66796875 C1.99127165 13.39185697 1.23546293 15.06905971 -1 18 C-1.33 18 -1.66 18 -2 18 C-2.054348 15.9377952 -2.09294961 13.87517184 -2.125 11.8125 C-2.14820312 10.66394531 -2.17140625 9.51539063 -2.1953125 8.33203125 C-2.00484152 5.08259628 -1.39360127 2.91339479 0 0 Z " fill="#9CC11E" transform="translate(98,28)"/>
<path d="M0 0 C0.33 0 0.66 0 1 0 C1 1.65 1 3.3 1 5 C-0.98 5.99 -0.98 5.99 -3 7 C-3 9.64 -3 12.28 -3 15 C-3.99 15.33 -4.98 15.66 -6 16 C-6 13.03 -6 10.06 -6 7 C-4.68 6.34 -3.36 5.68 -2 5 C-0.71745356 2.46229997 -0.71745356 2.46229997 0 0 Z " fill="#A1C52F" transform="translate(98,90)"/>
<path d="M0 0 C1.49341969 2.98683937 0.40648676 4.95160978 -0.4375 8.125 C-0.72496094 9.22070312 -1.01242188 10.31640625 -1.30859375 11.4453125 C-1.65083984 12.70988281 -1.65083984 12.70988281 -2 14 C-3.32 14 -4.64 14 -6 14 C-4.45941767 8.98491285 -2.97068161 4.3852919 0 0 Z " fill="#DDECD7" transform="translate(110,81)"/>
<path d="M0 0 C1.60717771 2.41076656 2.61542515 4.28099245 3.625 6.9375 C3.88539062 7.60652344 4.14578125 8.27554688 4.4140625 8.96484375 C5 11 5 11 5 15 C3.02 15.99 3.02 15.99 1 17 C0.67 11.39 0.34 5.78 0 0 Z " fill="#EBCB32" transform="translate(59,107)"/>
<path d="M0 0 C0.33 0 0.66 0 1 0 C1.08075665 2.29109597 1.13907731 4.58299267 1.1875 6.875 C1.22230469 8.15117188 1.25710937 9.42734375 1.29296875 10.7421875 C1.19628906 11.81726563 1.09960938 12.89234375 1 14 C0.01 14.66 -0.98 15.32 -2 16 C-2.05449838 14.27119018 -2.09301688 12.54187288 -2.125 10.8125 C-2.14820312 9.84957031 -2.17140625 8.88664062 -2.1953125 7.89453125 C-1.9913544 4.87187222 -1.26874632 2.73230015 0 0 Z " fill="#5C9B75" transform="translate(116,37)"/>
<path d="M0 0 C0.33 0 0.66 0 1 0 C1 4.62 1 9.24 1 14 C-0.32 14 -1.64 14 -3 14 C-2.48594831 9.03083364 -1.76615118 4.70973649 0 0 Z " fill="#F6E0BF" transform="translate(56,18)"/>
<path d="M0 0 C0.99 0 1.98 0 3 0 C4.4606285 2.64738916 5 3.89448334 5 7 C4.01 7 3.02 7 2 7 C1.67 7.99 1.34 8.98 1 10 C0.34 9.67 -0.32 9.34 -1 9 C-0.67 6.03 -0.34 3.06 0 0 Z " fill="#C0D229" transform="translate(84,114)"/>
<path d="M0 0 C0.33 0 0.66 0 1 0 C1 9.24 1 18.48 1 28 C0.67 28 0.34 28 0 28 C-0.02505615 27.44014404 -0.0501123 26.88028809 -0.07592773 26.3034668 C-0.19203745 23.76458695 -0.3146958 21.22606447 -0.4375 18.6875 C-0.47681641 17.80642578 -0.51613281 16.92535156 -0.55664062 16.01757812 C-0.59853516 15.17001953 -0.64042969 14.32246094 -0.68359375 13.44921875 C-0.73858032 12.27879028 -0.73858032 12.27879028 -0.79467773 11.0847168 C-0.94125263 8.80670899 -0.94125263 8.80670899 -2 6 C-1.0625 2.8125 -1.0625 2.8125 0 0 Z " fill="#DDE5ED" transform="translate(139,92)"/>
<path d="M0 0 C2.49571585 3.74357377 2.44684588 7.66043907 2 12 C1 15 1 15 0 17 C-0.33 17 -0.66 17 -1 17 C-1.02699725 14.72923158 -1.04639453 12.45837179 -1.0625 10.1875 C-1.07990234 8.29064453 -1.07990234 8.29064453 -1.09765625 6.35546875 C-1 3 -1 3 0 0 Z " fill="#695096" transform="translate(148,33)"/>
<path d="M0 0 C4.29345052 4.15495212 5.10554969 5.95173482 5.23046875 12.02734375 C5 14 5 14 3 17 C3 14.03 3 11.06 3 8 C2.34 8 1.68 8 1 8 C0.67 5.36 0.34 2.72 0 0 Z " fill="#E8773D" transform="translate(38,7)"/>
<path d="M0 0 C1.485 0.99 1.485 0.99 3 2 C2.50130596 7.36891879 1.97772468 12.69235173 1 18 C0.67 18 0.34 18 0 18 C0 12.06 0 6.12 0 0 Z " fill="#E34D2E" transform="translate(10,74)"/>
<path d="M0 0 C2.31 0 4.62 0 7 0 C6.34 0.66 5.68 1.32 5 2 C4.60235737 3.98821313 4.26224651 5.98944339 4 8 C2.68 7.67 1.36 7.34 0 7 C0 4.69 0 2.38 0 0 Z " fill="#C7D213" transform="translate(80,66)"/>
<path d="M0 0 C0.33 0.66 0.66 1.32 1 2 C1.66 2 2.32 2 3 2 C2.67 7.61 2.34 13.22 2 19 C1.67 19 1.34 19 1 19 C0.67 15.37 0.34 11.74 0 8 C-0.99 8.495 -0.99 8.495 -2 9 C-1.34 6.03 -0.68 3.06 0 0 Z " fill="#DEECCC" transform="translate(104,27)"/>
<path d="M0 0 C3 3 3 3 3.29296875 5.91796875 C3.25816406 6.99691406 3.22335938 8.07585937 3.1875 9.1875 C3.16042969 10.27417969 3.13335937 11.36085938 3.10546875 12.48046875 C3.07066406 13.31191406 3.03585938 14.14335938 3 15 C2.67 15 2.34 15 2 15 C2 13.35 2 11.7 2 10 C1.34 10 0.68 10 0 10 C0 6.7 0 3.4 0 0 Z " fill="#5FA86B" transform="translate(114,67)"/>
<path d="M0 0 C0.33 0 0.66 0 1 0 C1 3.3 1 6.6 1 10 C-0.65 10.33 -2.3 10.66 -4 11 C-3.34 10.67 -2.68 10.34 -2 10 C-2.04125 8.906875 -2.0825 7.81375 -2.125 6.6875 C-2 3 -2 3 0 0 Z " fill="#6AA268" transform="translate(113,44)"/>
<path d="M0 0 C0.33 0 0.66 0 1 0 C1.33 2.31 1.66 4.62 2 7 C2.66 6.67 3.32 6.34 4 6 C3.67 8.64 3.34 11.28 3 14 C2.01 14 1.02 14 0 14 C0 9.38 0 4.76 0 0 Z " fill="#F8F3E1" transform="translate(61,28)"/>
<path d="M0 0 C1.32 0 2.64 0 4 0 C4 1.98 4 3.96 4 6 C2.68 6.33 1.36 6.66 0 7 C0 4.69 0 2.38 0 0 Z " fill="#725C9F" transform="translate(164,115)"/>
<path d="M0 0 C1.32 0.33 2.64 0.66 4 1 C3.67 3.64 3.34 6.28 3 9 C2.01 8.67 1.02 8.34 0 8 C0 5.36 0 2.72 0 0 Z " fill="#9AC01A" transform="translate(96,1)"/>
<path d="M0 0 C0.33 1.32 0.66 2.64 1 4 C0.34 4 -0.32 4 -1 4 C-1 4.66 -1 5.32 -1 6 C-2.32 5.34 -3.64 4.68 -5 4 C-4.67 3.01 -4.34 2.02 -4 1 C-3.34 1 -2.68 1 -2 1 C-1.34 0.67 -0.68 0.34 0 0 Z " fill="#E4612F" transform="translate(41,57)"/>
<path d="M0 0 C0.33 0 0.66 0 1 0 C1 2.97 1 5.94 1 9 C0.01 9.33 -0.98 9.66 -2 10 C-1.85950482 8.52031676 -1.71245174 7.04125484 -1.5625 5.5625 C-1.48128906 4.73878906 -1.40007813 3.91507813 -1.31640625 3.06640625 C-1 1 -1 1 0 0 Z " fill="#FAF8EE" transform="translate(62,41)"/>
<path d="M0 0 C0.99 0 1.98 0 3 0 C3 2.64 3 5.28 3 8 C2.67 7.01 2.34 6.02 2 5 C1.01 5.33 0.02 5.66 -1 6 C-0.67 4.02 -0.34 2.04 0 0 Z " fill="#F8F1E8" transform="translate(39,103)"/>
<path d="M0 0 C0.33 0 0.66 0 1 0 C1.66 3.3 2.32 6.6 3 10 C1.68 9.34 0.36 8.68 -1 8 C-0.67 5.36 -0.34 2.72 0 0 Z " fill="#F5DAD2" transform="translate(30,39)"/>
<path d="M0 0 C2.60018816 3.90028225 2.15085514 7.47434569 2 12 C1.67 12 1.34 12 1 12 C0.855625 11.2575 0.71125 10.515 0.5625 9.75 C0.05802414 7.08713438 0.05802414 7.08713438 -0.625 4.875 C-1 3 -1 3 0 0 Z " fill="#8B7AAE" transform="translate(148,33)"/>
</svg>
